<svg xmlns="http://www.w3.org/2000/svg" xmlns:xlink="http://www.w3.org/1999/xlink" width="500" zoomAndPan="magnify" viewBox="0 0 375 374.999991" height="500" preserveAspectRatio="xMidYMid meet" version="1.0"><defs><g/><clipPath id="6b1a85aa9c"><path d="M 146.496094 212 L 155 212 L 155 221 L 146.496094 221 Z M 146.496094 212 " clip-rule="nonzero"/></clipPath><clipPath id="20c4186b97"><path d="M 182 204.855469 L 191 204.855469 L 191 213 L 182 213 Z M 182 204.855469 " clip-rule="nonzero"/></clipPath><clipPath id="5d8d28e5b3"><path d="M 220 239 L 228.246094 239 L 228.246094 248 L 220 248 Z M 220 239 " clip-rule="nonzero"/></clipPath><clipPath id="b422973690"><path d="M 146.496094 212 L 155 212 L 155 221 L 146.496094 221 Z M 146.496094 212 " clip-rule="nonzero"/></clipPath><clipPath id="95a7ae4fee"><path d="M 182 204.855469 L 191 204.855469 L 191 213 L 182 213 Z M 182 204.855469 " clip-rule="nonzero"/></clipPath><clipPath id="ab18779b1e"><path d="M 220 239 L 228.246094 239 L 228.246094 248 L 220 248 Z M 220 239 " clip-rule="nonzero"/></clipPath><clipPath id="89bda9f097"><path d="M 145.488281 229 L 156 229 L 156 239 L 145.488281 239 Z M 145.488281 229 " clip-rule="nonzero"/></clipPath><clipPath id="4ba23a96a6"><path d="M 96.496094 134 L 279.496094 134 L 279.496094 323.644531 L 96.496094 323.644531 Z M 96.496094 134 " clip-rule="nonzero"/></clipPath><clipPath id="4048f37ef1"><path d="M 133 101.003906 L 240 101.003906 L 240 179 L 133 179 Z M 133 101.003906 " clip-rule="nonzero"/></clipPath><clipPath id="73e57759c0"><path d="M 100 175 L 273.238281 175 L 273.238281 180 L 100 180 Z M 100 175 " clip-rule="nonzero"/></clipPath></defs><rect x="-37.5" width="450" fill="#ffffff" y="-37.499999" height="449.999989" fill-opacity="1"/><rect x="-37.5" width="450" fill="#ffffff" y="-37.499999" height="449.999989" fill-opacity="1"/><path fill="#0077b6" d="M 244.96875 211.886719 C 258.75 240.742188 245.316406 279.398438 213.175781 294.746094 C 181.035156 310.097656 143.808594 299.148438 130.027344 270.292969 C 116.25 241.441406 131.132812 205.605469 163.273438 190.257812 C 195.414062 174.90625 231.1875 183.03125 244.96875 211.886719 Z M 244.96875 211.886719 " fill-opacity="1" fill-rule="nonzero"/><path fill="#cce1f6" d="M 237.371094 213.164062 C 247.03125 230.746094 243.710938 242.136719 229.359375 257.878906 C 226.238281 261.304688 217.261719 267.398438 214.183594 270.621094 C 209.722656 275.289062 206.066406 282.589844 201.183594 285.273438 C 173.488281 300.488281 150.832031 293.3125 137.074219 268.273438 C 123.316406 243.234375 134.613281 210.597656 162.308594 195.382812 C 190.007812 180.164062 223.613281 188.125 237.371094 213.164062 Z M 237.371094 213.164062 " fill-opacity="1" fill-rule="nonzero"/><g clip-path="url(#6b1a85aa9c)"><path fill="#c1121f" d="M 150.605469 212.597656 C 153.027344 212.640625 154.417969 213.957031 154.394531 216.183594 C 154.367188 218.695312 152.730469 220.308594 150.246094 220.273438 C 148.476562 220.246094 146.511719 218.273438 146.695312 216.433594 C 146.953125 213.867188 147.933594 212.558594 150.605469 212.597656 Z M 150.605469 212.597656 " fill-opacity="1" fill-rule="nonzero"/></g><path fill="#c1121f" d="M 152.679688 249.402344 C 155.101562 249.445312 156.492188 250.761719 156.464844 252.988281 C 156.441406 255.5 154.804688 257.113281 152.320312 257.078125 C 150.550781 257.050781 148.582031 255.078125 148.769531 253.238281 C 149.027344 250.671875 150.007812 249.363281 152.679688 249.402344 Z M 152.679688 249.402344 " fill-opacity="1" fill-rule="nonzero"/><g clip-path="url(#20c4186b97)"><path fill="#c1121f" d="M 186.226562 204.894531 C 188.648438 204.941406 190.035156 206.253906 190.011719 208.484375 C 189.984375 210.996094 188.351562 212.605469 185.867188 212.570312 C 184.097656 212.546875 182.128906 210.570312 182.316406 208.730469 C 182.574219 206.164062 183.554688 204.859375 186.226562 204.894531 Z M 186.226562 204.894531 " fill-opacity="1" fill-rule="nonzero"/></g><path fill="#c1121f" d="M 169.5625 226.148438 C 171.984375 226.191406 173.375 227.507812 173.351562 229.738281 C 173.324219 232.246094 171.6875 233.859375 169.203125 233.824219 C 167.4375 233.796875 165.46875 231.824219 165.652344 229.984375 C 165.910156 227.417969 166.890625 226.109375 169.5625 226.148438 Z M 169.5625 226.148438 " fill-opacity="1" fill-rule="nonzero"/><path fill="#c1121f" d="M 211.40625 218.445312 C 213.824219 218.492188 215.214844 219.808594 215.191406 222.035156 C 215.164062 224.546875 213.527344 226.15625 211.042969 226.121094 C 209.277344 226.097656 207.308594 224.121094 207.492188 222.28125 C 207.753906 219.714844 208.730469 218.410156 211.40625 218.445312 Z M 211.40625 218.445312 " fill-opacity="1" fill-rule="nonzero"/><path fill="#c1121f" d="M 196 237.183594 C 198.421875 237.226562 199.8125 238.542969 199.789062 240.769531 C 199.761719 243.28125 198.125 244.894531 195.640625 244.859375 C 193.875 244.832031 191.90625 242.859375 192.089844 241.019531 C 192.347656 238.453125 193.328125 237.144531 196 237.183594 Z M 196 237.183594 " fill-opacity="1" fill-rule="nonzero"/><path fill="#c1121f" d="M 174.304688 243.550781 C 176.726562 243.59375 178.113281 244.914062 178.089844 247.140625 C 178.0625 249.648438 176.429688 251.261719 173.945312 251.226562 C 172.175781 251.199219 170.207031 249.226562 170.394531 247.386719 C 170.652344 244.820312 171.628906 243.511719 174.304688 243.550781 Z M 174.304688 243.550781 " fill-opacity="1" fill-rule="nonzero"/><path fill="#c1121f" d="M 201.257812 264.285156 C 203.679688 264.332031 205.070312 265.648438 205.046875 267.875 C 205.019531 270.386719 203.382812 271.996094 200.898438 271.960938 C 199.132812 271.9375 197.164062 269.960938 197.347656 268.121094 C 197.605469 265.554688 198.585938 264.25 201.257812 264.285156 Z M 201.257812 264.285156 " fill-opacity="1" fill-rule="nonzero"/><g clip-path="url(#5d8d28e5b3)"><path fill="#c1121f" d="M 224.660156 239.699219 C 227.082031 239.746094 228.46875 241.0625 228.445312 243.289062 C 228.417969 245.800781 226.785156 247.410156 224.300781 247.375 C 222.53125 247.351562 220.5625 245.375 220.75 243.535156 C 221.007812 240.96875 221.988281 239.664062 224.660156 239.699219 Z M 224.660156 239.699219 " fill-opacity="1" fill-rule="nonzero"/></g><g clip-path="url(#b422973690)"><path fill="#c1121f" d="M 150.605469 212.597656 C 153.027344 212.640625 154.417969 213.957031 154.394531 216.183594 C 154.367188 218.695312 152.730469 220.308594 150.246094 220.273438 C 148.476562 220.246094 146.511719 218.273438 146.695312 216.433594 C 146.953125 213.867188 147.933594 212.558594 150.605469 212.597656 Z M 150.605469 212.597656 " fill-opacity="1" fill-rule="nonzero"/></g><path fill="#c1121f" d="M 152.679688 249.402344 C 155.101562 249.445312 156.492188 250.761719 156.464844 252.988281 C 156.441406 255.5 154.804688 257.113281 152.320312 257.078125 C 150.550781 257.050781 148.582031 255.078125 148.769531 253.238281 C 149.027344 250.671875 150.007812 249.363281 152.679688 249.402344 Z M 152.679688 249.402344 " fill-opacity="1" fill-rule="nonzero"/><g clip-path="url(#95a7ae4fee)"><path fill="#c1121f" d="M 186.226562 204.894531 C 188.648438 204.941406 190.035156 206.253906 190.011719 208.484375 C 189.984375 210.996094 188.351562 212.605469 185.867188 212.570312 C 184.097656 212.546875 182.128906 210.570312 182.316406 208.730469 C 182.574219 206.164062 183.554688 204.859375 186.226562 204.894531 Z M 186.226562 204.894531 " fill-opacity="1" fill-rule="nonzero"/></g><path fill="#c1121f" d="M 169.5625 226.148438 C 171.984375 226.191406 173.375 227.507812 173.351562 229.738281 C 173.324219 232.246094 171.6875 233.859375 169.203125 233.824219 C 167.4375 233.796875 165.46875 231.824219 165.652344 229.984375 C 165.910156 227.417969 166.890625 226.109375 169.5625 226.148438 Z M 169.5625 226.148438 " fill-opacity="1" fill-rule="nonzero"/><path fill="#c1121f" d="M 211.40625 218.445312 C 213.824219 218.492188 215.214844 219.808594 215.191406 222.035156 C 215.164062 224.546875 213.527344 226.15625 211.042969 226.121094 C 209.277344 226.097656 207.308594 224.121094 207.492188 222.28125 C 207.753906 219.714844 208.730469 218.410156 211.40625 218.445312 Z M 211.40625 218.445312 " fill-opacity="1" fill-rule="nonzero"/><path fill="#c1121f" d="M 196 237.183594 C 198.421875 237.226562 199.8125 238.542969 199.789062 240.769531 C 199.761719 243.28125 198.125 244.894531 195.640625 244.859375 C 193.875 244.832031 191.90625 242.859375 192.089844 241.019531 C 192.347656 238.453125 193.328125 237.144531 196 237.183594 Z M 196 237.183594 " fill-opacity="1" fill-rule="nonzero"/><path fill="#c1121f" d="M 174.304688 243.550781 C 176.726562 243.59375 178.113281 244.914062 178.089844 247.140625 C 178.0625 249.648438 176.429688 251.261719 173.945312 251.226562 C 172.175781 251.199219 170.207031 249.226562 170.394531 247.386719 C 170.652344 244.820312 171.628906 243.511719 174.304688 243.550781 Z M 174.304688 243.550781 " fill-opacity="1" fill-rule="nonzero"/><path fill="#c1121f" d="M 201.257812 264.285156 C 203.679688 264.332031 205.070312 265.648438 205.046875 267.875 C 205.019531 270.386719 203.382812 271.996094 200.898438 271.960938 C 199.132812 271.9375 197.164062 269.960938 197.347656 268.121094 C 197.605469 265.554688 198.585938 264.25 201.257812 264.285156 Z M 201.257812 264.285156 " fill-opacity="1" fill-rule="nonzero"/><g clip-path="url(#ab18779b1e)"><path fill="#c1121f" d="M 224.660156 239.699219 C 227.082031 239.746094 228.46875 241.0625 228.445312 243.289062 C 228.417969 245.800781 226.785156 247.410156 224.300781 247.375 C 222.53125 247.351562 220.5625 245.375 220.75 243.535156 C 221.007812 240.96875 221.988281 239.664062 224.660156 239.699219 Z M 224.660156 239.699219 " fill-opacity="1" fill-rule="nonzero"/></g><g clip-path="url(#89bda9f097)"><path fill="#00b4d8" d="M 150.867188 229.628906 C 153.636719 229.628906 155.886719 231.878906 155.886719 234.652344 C 155.886719 237.421875 153.636719 238.46875 150.867188 238.46875 C 148.09375 238.46875 145.84375 237.421875 145.84375 234.652344 C 145.84375 231.878906 148.09375 229.628906 150.867188 229.628906 Z M 150.867188 229.628906 " fill-opacity="1" fill-rule="nonzero"/></g><path fill="#00b4d8" d="M 183.257812 213.648438 C 186.160156 215.128906 187.316406 218.6875 185.839844 221.589844 C 184.359375 224.492188 181.445312 224.386719 178.539062 222.90625 C 175.636719 221.429688 173.835938 219.132812 175.316406 216.230469 C 176.796875 213.324219 180.355469 212.167969 183.257812 213.648438 Z M 183.257812 213.648438 " fill-opacity="1" fill-rule="nonzero"/><path fill="#00b4d8" d="M 167.5625 257.234375 C 170.78125 256.726562 173.808594 258.925781 174.320312 262.144531 C 174.828125 265.363281 172.40625 266.988281 169.1875 267.5 C 165.96875 268.007812 163.164062 267.210938 162.65625 263.992188 C 162.144531 260.773438 164.34375 257.746094 167.5625 257.234375 Z M 167.5625 257.234375 " fill-opacity="1" fill-rule="nonzero"/><path fill="#00b4d8" d="M 208.648438 207.171875 C 211.183594 208.464844 212.191406 211.570312 210.902344 214.109375 C 209.609375 216.644531 207.0625 216.550781 204.527344 215.257812 C 201.988281 213.964844 200.417969 211.960938 201.710938 209.425781 C 203.003906 206.886719 206.109375 205.878906 208.648438 207.171875 Z M 208.648438 207.171875 " fill-opacity="1" fill-rule="nonzero"/><path fill="#00b4d8" d="M 185.164062 238.535156 C 187.511719 237.683594 190.109375 238.894531 190.964844 241.242188 C 191.820312 243.589844 190.234375 245.167969 187.886719 246.023438 C 185.539062 246.875 183.3125 246.683594 182.457031 244.335938 C 181.605469 241.988281 182.816406 239.390625 185.164062 238.535156 Z M 185.164062 238.535156 " fill-opacity="1" fill-rule="nonzero"/><path fill="#00b4d8" d="M 224.382812 226.484375 C 226.847656 227.742188 227.832031 230.765625 226.574219 233.234375 C 225.316406 235.699219 222.839844 235.609375 220.371094 234.351562 C 217.90625 233.09375 216.375 231.144531 217.632812 228.675781 C 218.890625 226.210938 221.914062 225.226562 224.382812 226.484375 Z M 224.382812 226.484375 " fill-opacity="1" fill-rule="nonzero"/><path fill="#00b4d8" d="M 217.527344 251.804688 C 220.429688 253.285156 220.3125 255.820312 218.832031 258.726562 C 217.351562 261.628906 215.714844 262.542969 212.808594 261.0625 C 209.90625 259.585938 208.105469 257.289062 209.585938 254.386719 C 211.066406 251.480469 214.621094 250.324219 217.527344 251.804688 Z M 217.527344 251.804688 " fill-opacity="1" fill-rule="nonzero"/><g clip-path="url(#4ba23a96a6)"><path fill="#000000" d="M 277.695312 174.058594 L 189.242188 134.363281 C 188.414062 133.992188 187.582031 133.992188 186.75 134.363281 L 98.300781 174.058594 C 97.753906 174.304688 97.3125 174.679688 96.988281 175.183594 C 96.660156 175.6875 96.496094 176.242188 96.496094 176.84375 L 96.496094 280.65625 C 96.496094 281.257812 96.660156 281.808594 96.988281 282.316406 C 97.3125 282.820312 97.753906 283.195312 98.300781 283.441406 L 186.75 323.132812 C 187.582031 323.507812 188.414062 323.507812 189.242188 323.132812 L 277.695312 283.441406 C 278.242188 283.195312 278.679688 282.820312 279.007812 282.316406 C 279.332031 281.808594 279.496094 281.257812 279.496094 280.65625 L 279.496094 176.84375 C 279.496094 176.242188 279.332031 175.6875 279.007812 175.183594 C 278.679688 174.679688 278.242188 174.304688 277.695312 174.058594 Z M 184.945312 315.632812 L 102.597656 278.679688 L 102.597656 181.765625 L 184.945312 218.722656 Z M 187.996094 213.398438 L 106.769531 176.945312 L 187.996094 140.496094 L 269.226562 176.945312 Z M 273.398438 278.679688 L 191.046875 315.632812 L 191.046875 218.722656 L 273.398438 181.765625 Z M 273.398438 278.679688 " fill-opacity="1" fill-rule="nonzero"/></g><path stroke-linecap="butt" transform="matrix(0.75, 0, 0, 0.75, 100.740012, 174.856234)" fill="none" stroke-linejoin="miter" d="M -0.00230805 2.49898 L 231.36229 2.49898 " stroke="#000000" stroke-width="5" stroke-opacity="1" stroke-miterlimit="4"/><path fill="#e8e0da" d="M 238.160156 154.570312 C 237.328125 170.28125 229.742188 176.867188 229.742188 176.867188 L 143.484375 176.867188 C 143.484375 176.867188 134.050781 166.109375 134.257812 149.996094 C 134.328125 144.695312 135.539062 137.78125 137.339844 130.878906 C 141.042969 116.765625 147.261719 102.722656 151.382812 102.722656 C 157.511719 102.722656 169.992188 119.511719 169.992188 119.511719 C 169.992188 119.511719 170.753906 119.253906 172.089844 118.921875 C 174.960938 118.175781 180.453125 116.992188 186.234375 117.132812 C 192.085938 117.269531 197.972656 118.402344 201.054688 119.078125 C 202.40625 119.375 203.21875 119.601562 203.21875 119.601562 C 203.21875 119.601562 214.976562 103.003906 219.925781 102.722656 C 224.011719 102.5 230.902344 116.054688 234.957031 131 C 237.152344 139.117188 238.523438 147.632812 238.160156 154.570312 Z M 238.160156 154.570312 " fill-opacity="1" fill-rule="nonzero"/><path fill="#7f6f67" d="M 234.957031 131 C 229.535156 131.835938 222.921875 132.078125 216.117188 130.460938 C 206.128906 128.097656 202.472656 123.042969 201.054688 119.097656 C 202.40625 119.390625 203.21875 119.617188 203.21875 119.617188 C 203.21875 119.617188 214.976562 103.019531 219.925781 102.742188 C 224.011719 102.515625 230.902344 116.070312 234.957031 131.019531 Z M 234.957031 131 " fill-opacity="1" fill-rule="nonzero"/><path fill="#7f6f67" d="M 172.070312 118.921875 C 170.6875 122.902344 167.066406 128.0625 156.9375 130.460938 C 149.789062 132.164062 142.878906 131.816406 137.324219 130.878906 C 141.027344 116.765625 147.242188 102.722656 151.363281 102.722656 C 157.492188 102.722656 169.976562 119.511719 169.976562 119.511719 C 169.976562 119.511719 170.738281 119.253906 172.070312 118.921875 Z M 172.070312 118.921875 " fill-opacity="1" fill-rule="nonzero"/><g clip-path="url(#4048f37ef1)"><path fill="#000000" d="M 142.707031 178.605469 C 142.414062 178.449219 142.136719 178.1875 141.945312 177.925781 C 141.945312 177.925781 141.945312 177.910156 141.945312 177.910156 L 141.824219 177.71875 C 141.738281 177.578125 141.667969 177.457031 141.597656 177.320312 C 141.167969 176.589844 140.734375 175.753906 140.316406 175.023438 C 136.058594 167.046875 132.871094 158.199219 133.0625 149.042969 C 133.167969 145.652344 133.667969 142.296875 134.292969 138.980469 C 136.042969 130.183594 138.691406 121.632812 142.203125 113.414062 C 143.917969 109.746094 146.34375 102.933594 150.480469 101.578125 C 152.851562 101.003906 155.378906 102.792969 157.128906 104.132812 C 162.238281 108.234375 167.015625 113.65625 171.515625 118.417969 C 171.515625 118.417969 169.421875 117.757812 169.421875 117.757812 C 173.699219 116.957031 177.976562 116.351562 182.320312 116.125 C 188.035156 115.828125 193.75 116.488281 199.410156 117.21875 C 200.828125 117.410156 202.230469 117.601562 203.703125 117.808594 L 201.679688 118.539062 C 204.207031 115.722656 208.050781 111.378906 210.664062 108.683594 C 212.238281 107.085938 213.796875 105.503906 215.511719 104.027344 C 216.394531 103.296875 217.296875 102.585938 218.488281 102.046875 C 219.183594 101.769531 219.925781 101.59375 220.6875 101.75 C 221.46875 101.90625 222.054688 102.289062 222.574219 102.65625 C 224.445312 104.097656 225.746094 106.097656 226.957031 108.058594 C 232.496094 117.6875 235.925781 128.429688 238.003906 139.328125 C 239.265625 146.453125 239.75 153.820312 238.433594 160.980469 C 237.378906 166.875 235.320312 172.746094 231.648438 177.542969 C 231.457031 177.789062 231.199219 178.101562 230.992188 178.328125 C 230.644531 178.65625 230.195312 178.796875 229.761719 178.796875 C 200.761719 178.796875 171.726562 178.742188 142.742188 178.621094 Z M 144.265625 175.144531 C 172.78125 175.042969 201.246094 174.972656 229.742188 174.972656 C 229.742188 174.972656 228.496094 175.441406 228.515625 175.425781 C 228.515625 175.425781 228.550781 175.40625 228.550781 175.40625 L 228.617188 175.355469 L 228.757812 175.25 C 232.03125 172.46875 234.054688 168.457031 235.40625 164.421875 C 237.96875 156.410156 237.5 147.859375 235.839844 139.675781 C 233.65625 129.105469 230.453125 118.539062 225.085938 109.136719 C 224.167969 107.644531 221.570312 103.4375 219.683594 103.785156 C 218.609375 104.0625 217.660156 104.707031 216.6875 105.433594 C 215.027344 106.722656 213.519531 108.304688 212.152344 109.972656 C 210.800781 111.570312 209.417969 113.429688 208.222656 115.152344 C 206.992188 116.941406 205.796875 118.785156 204.761719 120.660156 C 204.414062 121.269531 203.738281 121.582031 203.097656 121.460938 C 197.78125 119.667969 192.191406 118.417969 186.582031 118.226562 C 182.476562 118.089844 178.355469 118.695312 174.410156 119.859375 C 173.421875 120.15625 172.453125 120.488281 171.5 120.867188 C 171.1875 120.992188 170.859375 121.128906 170.601562 121.269531 C 169.941406 121.597656 169.164062 121.425781 168.710938 120.867188 L 168.503906 120.609375 C 165.144531 115.132812 158.738281 106.667969 152.800781 104.253906 C 152.800781 104.253906 152.472656 104.148438 152.472656 104.148438 C 152.160156 104.046875 151.882812 103.992188 151.570312 103.976562 C 151.484375 103.976562 151.382812 103.957031 151.347656 103.976562 C 151.242188 103.976562 151.105469 104.027344 150.984375 104.097656 C 149.824219 104.738281 148.871094 106.027344 148.074219 107.136719 C 146.515625 109.328125 145.21875 111.691406 144.109375 114.175781 C 139.851562 124.222656 136.957031 134.980469 135.730469 145.828125 C 135.574219 147.441406 135.433594 149.058594 135.46875 150.675781 C 135.46875 153.335938 135.644531 156.117188 136.164062 158.703125 C 136.164062 158.703125 136.492188 160.285156 136.492188 160.285156 L 136.578125 160.6875 C 136.957031 162.113281 137.390625 163.554688 137.929688 164.925781 C 139.453125 168.785156 141.5625 172.503906 144.628906 175.320312 C 144.628906 175.320312 144.765625 175.441406 144.765625 175.441406 L 144.785156 175.441406 C 144.785156 175.441406 144.800781 175.476562 144.785156 175.441406 C 144.75 175.390625 144.699219 175.335938 144.628906 175.285156 C 144.523438 175.179688 144.386719 175.113281 144.246094 175.058594 Z M 144.265625 175.144531 " fill-opacity="1" fill-rule="nonzero"/></g><path fill="#ffc5c5" d="M 144.492188 128.1875 C 146.671875 129.890625 163.101562 126.484375 164.988281 121.894531 C 165.890625 119.722656 155.449219 110.128906 151.933594 110.894531 C 148.421875 111.65625 143.054688 127.054688 144.492188 128.167969 Z M 144.492188 128.1875 " fill-opacity="1" fill-rule="nonzero"/><path fill="#ffc5c5" d="M 228.394531 128.1875 C 226.210938 129.890625 209.78125 126.484375 207.894531 121.894531 C 206.992188 119.722656 216.898438 110.128906 220.410156 110.894531 C 223.925781 111.65625 229.8125 127.054688 228.394531 128.167969 Z M 228.394531 128.1875 " fill-opacity="1" fill-rule="nonzero"/><g clip-path="url(#73e57759c0)"><path fill="#000000" d="M 270.984375 179.753906 L 102.246094 179.753906 C 101.03125 179.753906 100.046875 178.761719 100.046875 177.542969 C 100.046875 176.328125 101.03125 175.335938 102.246094 175.335938 L 270.984375 175.335938 C 272.199219 175.335938 273.183594 176.328125 273.183594 177.542969 C 273.183594 178.761719 272.199219 179.753906 270.984375 179.753906 Z M 270.984375 179.753906 " fill-opacity="1" fill-rule="nonzero"/></g><path fill="#7f6f67" d="M 241.65625 166.003906 C 253.84375 167.726562 259.644531 171.84375 258.605469 178.050781 C 257.566406 184.253906 248.476562 181.472656 248.476562 181.472656 C 248.476562 181.472656 245.742188 182.308594 242.488281 182.011719 C 239.441406 181.734375 236.375 179.734375 236.375 179.734375 C 236.375 179.734375 234.105469 180.621094 229.5 179.230469 C 226.574219 178.363281 224.792969 174.417969 227.269531 170.75 C 229.207031 167.863281 233.761719 164.890625 241.65625 166.003906 Z M 241.65625 166.003906 " fill-opacity="1" fill-rule="nonzero"/><path fill="#000000" d="M 241.863281 164.492188 C 248.375 165.484375 257.375 167.046875 259.488281 174.46875 C 259.871094 175.910156 259.800781 177.441406 259.472656 178.867188 C 258.105469 183.871094 252.113281 183.507812 248.042969 182.898438 C 248.042969 182.898438 248.910156 182.898438 248.910156 182.898438 C 246.730469 183.785156 244.375 183.992188 242.035156 183.628906 C 239.648438 183.191406 237.65625 182.117188 235.871094 180.535156 C 235.855469 180.535156 236.722656 180.621094 236.722656 180.621094 C 236.566406 180.691406 236.480469 180.726562 236.375 180.777344 C 234.296875 181.578125 231.976562 181.386719 229.863281 180.898438 C 227.09375 180.378906 225.191406 178.273438 224.84375 175.511719 C 224.429688 172.175781 226.558594 169.203125 228.929688 167.117188 C 232.53125 164.230469 237.484375 163.902344 241.863281 164.511719 Z M 241.449219 167.515625 C 237.136719 166.890625 232.445312 167.570312 229.070312 170.453125 C 227.820312 171.582031 227.078125 173.476562 227.492188 175.058594 C 227.839844 176.46875 228.828125 177.511719 230.140625 177.875 C 231.996094 178.449219 233.933594 178.902344 235.871094 178.867188 C 235.960938 178.867188 236.757812 178.953125 236.878906 178.953125 C 238.644531 179.542969 240.601562 180.222656 242.417969 180.324219 C 244.046875 180.414062 245.722656 180.289062 247.371094 180.117188 C 247.855469 180.046875 248.425781 180.046875 248.910156 180.046875 C 251.699219 181.332031 256.996094 181.804688 257.585938 177.890625 C 258.136719 174.46875 256.320312 172.589844 253.5 171.097656 C 249.828125 169.0625 245.636719 168.175781 241.449219 167.515625 Z M 241.449219 167.515625 " fill-opacity="1" fill-rule="nonzero"/><path fill="#7f6f67" d="M 134.863281 166.003906 C 122.675781 167.726562 116.875 171.84375 117.914062 178.050781 C 118.953125 184.253906 128.042969 181.472656 128.042969 181.472656 C 128.042969 181.472656 130.777344 182.308594 134.03125 182.011719 C 137.078125 181.734375 140.144531 179.734375 140.144531 179.734375 C 140.144531 179.734375 142.414062 180.621094 147.019531 179.230469 C 149.945312 178.363281 151.726562 174.417969 149.25 170.75 C 147.3125 167.863281 142.757812 164.890625 134.863281 166.003906 Z M 134.863281 166.003906 " fill-opacity="1" fill-rule="nonzero"/><path fill="#7f6f67" d="M 165.421875 144.296875 C 153.0625 144.695312 145.527344 166.335938 161.335938 170.835938 C 172.867188 174.136719 214.457031 174.554688 220.964844 168.246094 C 228.203125 161.242188 219.304688 145.460938 208.792969 144.835938 C 193.558594 143.933594 193.539062 134.859375 186.613281 134.773438 C 178.804688 134.6875 180.070312 143.828125 165.421875 144.296875 Z M 165.421875 144.296875 " fill-opacity="1" fill-rule="nonzero"/><path fill="#000000" d="M 134.65625 164.492188 C 139.035156 163.882812 144.003906 164.230469 147.589844 167.097656 C 149.960938 169.183594 152.089844 172.15625 151.675781 175.492188 C 151.328125 178.273438 149.425781 180.378906 146.65625 180.882812 C 144.542969 181.367188 142.222656 181.558594 140.144531 180.761719 C 140.039062 180.707031 139.953125 180.671875 139.796875 180.605469 C 139.796875 180.605469 140.664062 180.515625 140.648438 180.515625 C 138.863281 182.097656 136.871094 183.175781 134.484375 183.609375 C 132.128906 183.976562 129.789062 183.765625 127.609375 182.878906 C 127.609375 182.878906 128.476562 182.878906 128.476562 182.878906 C 124.40625 183.488281 118.414062 183.855469 117.046875 178.847656 C 116.703125 177.421875 116.632812 175.894531 117.03125 174.453125 C 119.144531 167.03125 128.128906 165.464844 134.65625 164.476562 Z M 135.070312 167.515625 C 130.882812 168.175781 126.691406 169.0625 123.019531 171.097656 C 120.199219 172.589844 118.382812 174.46875 118.933594 177.890625 C 119.523438 181.820312 124.839844 181.332031 127.609375 180.046875 C 128.09375 180.046875 128.648438 180.046875 129.148438 180.117188 C 130.777344 180.289062 132.457031 180.414062 134.101562 180.324219 C 135.921875 180.203125 137.875 179.542969 139.640625 178.953125 C 139.761719 178.953125 140.558594 178.847656 140.648438 178.867188 C 142.585938 178.902344 144.523438 178.449219 146.378906 177.875 C 147.695312 177.511719 148.679688 176.46875 149.027344 175.058594 C 149.460938 173.476562 148.699219 171.582031 147.449219 170.453125 C 144.074219 167.570312 139.382812 166.910156 135.070312 167.515625 Z M 135.070312 167.515625 " fill-opacity="1" fill-rule="nonzero"/><path fill="#000000" d="M 191.167969 158.671875 C 190.234375 159.070312 189.003906 159.453125 188.070312 158.84375 C 187.742188 158.636719 187.496094 158.339844 187.308594 158.027344 C 188.484375 157.695312 189.800781 156.6875 189.800781 155.957031 C 189.800781 155.230469 188.363281 154.5 186.597656 154.5 C 184.832031 154.5 183.394531 155.074219 183.394531 155.957031 C 183.394531 156.84375 184.675781 157.714844 185.886719 158.042969 C 185.699219 158.375 185.453125 158.652344 185.144531 158.863281 C 184.207031 159.46875 182.996094 159.085938 182.042969 158.6875 C 181.402344 158.410156 180.832031 159.367188 181.488281 159.644531 C 182.769531 160.183594 184.261719 160.597656 185.558594 159.886719 C 185.992188 159.644531 186.320312 159.3125 186.597656 158.929688 C 186.875 159.3125 187.222656 159.644531 187.636719 159.886719 C 188.933594 160.617188 190.441406 160.183594 191.707031 159.644531 C 192.347656 159.367188 191.792969 158.410156 191.152344 158.6875 Z M 191.167969 158.671875 " fill-opacity="1" fill-rule="nonzero"/><path fill="#000000" d="M 173.351562 154.464844 C 173.351562 154.941406 173.304688 155.414062 173.214844 155.886719 C 173.121094 156.355469 172.984375 156.808594 172.800781 157.25 C 172.617188 157.691406 172.394531 158.113281 172.128906 158.511719 C 171.867188 158.90625 171.566406 159.277344 171.226562 159.613281 C 170.890625 159.953125 170.523438 160.253906 170.128906 160.519531 C 169.730469 160.785156 169.3125 161.007812 168.875 161.191406 C 168.433594 161.375 167.980469 161.511719 167.511719 161.605469 C 167.046875 161.699219 166.574219 161.746094 166.097656 161.746094 C 165.621094 161.746094 165.148438 161.699219 164.683594 161.605469 C 164.214844 161.511719 163.761719 161.375 163.320312 161.191406 C 162.882812 161.007812 162.464844 160.785156 162.066406 160.519531 C 161.671875 160.253906 161.304688 159.953125 160.96875 159.613281 C 160.632812 159.277344 160.332031 158.90625 160.066406 158.511719 C 159.800781 158.113281 159.578125 157.691406 159.394531 157.25 C 159.214844 156.808594 159.074219 156.355469 158.984375 155.886719 C 158.890625 155.414062 158.84375 154.941406 158.84375 154.464844 C 158.84375 153.984375 158.890625 153.511719 158.984375 153.042969 C 159.074219 152.574219 159.214844 152.121094 159.394531 151.675781 C 159.578125 151.234375 159.800781 150.816406 160.066406 150.417969 C 160.332031 150.019531 160.632812 149.652344 160.96875 149.316406 C 161.304688 148.976562 161.671875 148.675781 162.066406 148.410156 C 162.464844 148.144531 162.882812 147.917969 163.320312 147.738281 C 163.761719 147.554688 164.214844 147.414062 164.683594 147.320312 C 165.148438 147.230469 165.621094 147.183594 166.097656 147.183594 C 166.574219 147.183594 167.046875 147.230469 167.511719 147.320312 C 167.980469 147.414062 168.433594 147.554688 168.875 147.738281 C 169.3125 147.917969 169.730469 148.144531 170.128906 148.410156 C 170.523438 148.675781 170.890625 148.976562 171.226562 149.316406 C 171.566406 149.652344 171.867188 150.019531 172.128906 150.417969 C 172.394531 150.816406 172.617188 151.234375 172.800781 151.675781 C 172.984375 152.121094 173.121094 152.574219 173.214844 153.042969 C 173.304688 153.511719 173.351562 153.984375 173.351562 154.464844 Z M 173.351562 154.464844 " fill-opacity="1" fill-rule="nonzero"/><path fill="#000000" d="M 215.078125 154.464844 C 215.078125 154.941406 215.03125 155.414062 214.941406 155.886719 C 214.847656 156.355469 214.710938 156.808594 214.527344 157.25 C 214.34375 157.691406 214.121094 158.113281 213.855469 158.511719 C 213.589844 158.90625 213.292969 159.277344 212.953125 159.613281 C 212.617188 159.953125 212.25 160.253906 211.855469 160.519531 C 211.457031 160.785156 211.039062 161.007812 210.601562 161.191406 C 210.160156 161.375 209.707031 161.511719 209.238281 161.605469 C 208.773438 161.699219 208.300781 161.746094 207.824219 161.746094 C 207.347656 161.746094 206.875 161.699219 206.410156 161.605469 C 205.941406 161.511719 205.488281 161.375 205.046875 161.191406 C 204.609375 161.007812 204.191406 160.785156 203.792969 160.519531 C 203.398438 160.253906 203.03125 159.953125 202.695312 159.613281 C 202.359375 159.277344 202.058594 158.90625 201.792969 158.511719 C 201.527344 158.113281 201.304688 157.691406 201.121094 157.25 C 200.941406 156.808594 200.800781 156.355469 200.710938 155.886719 C 200.617188 155.414062 200.570312 154.941406 200.570312 154.464844 C 200.570312 153.984375 200.617188 153.511719 200.710938 153.042969 C 200.800781 152.574219 200.941406 152.121094 201.121094 151.675781 C 201.304688 151.234375 201.527344 150.816406 201.792969 150.417969 C 202.058594 150.019531 202.359375 149.652344 202.695312 149.316406 C 203.03125 148.976562 203.398438 148.675781 203.792969 148.410156 C 204.191406 148.144531 204.609375 147.917969 205.046875 147.738281 C 205.488281 147.554688 205.941406 147.414062 206.410156 147.320312 C 206.875 147.230469 207.347656 147.183594 207.824219 147.183594 C 208.300781 147.183594 208.773438 147.230469 209.238281 147.320312 C 209.707031 147.414062 210.160156 147.554688 210.601562 147.738281 C 211.039062 147.917969 211.457031 148.144531 211.855469 148.410156 C 212.25 148.675781 212.617188 148.976562 212.953125 149.316406 C 213.292969 149.652344 213.589844 150.019531 213.855469 150.417969 C 214.121094 150.816406 214.34375 151.234375 214.527344 151.675781 C 214.710938 152.121094 214.847656 152.574219 214.941406 153.042969 C 215.03125 153.511719 215.078125 153.984375 215.078125 154.464844 Z M 215.078125 154.464844 " fill-opacity="1" fill-rule="nonzero"/><path fill="#ffabab" d="M 155.589844 162.703125 C 155.292969 163.277344 154.984375 163.832031 154.6875 164.40625 C 154.394531 164.980469 154.601562 165.101562 154.914062 165.257812 C 155.226562 165.414062 155.605469 165.34375 155.761719 165.03125 C 156.054688 164.457031 156.367188 163.902344 156.660156 163.328125 C 156.957031 162.753906 156.75 162.632812 156.4375 162.476562 C 156.125 162.320312 155.746094 162.390625 155.589844 162.703125 Z M 155.589844 162.703125 " fill-opacity="1" fill-rule="nonzero"/><path fill="#ffabab" d="M 158.652344 162.910156 L 157.996094 164.527344 C 157.941406 164.667969 157.996094 164.890625 158.0625 165.015625 C 158.132812 165.136719 158.289062 165.273438 158.445312 165.308594 C 158.601562 165.34375 158.792969 165.34375 158.929688 165.238281 L 159.050781 165.136719 C 159.121094 165.066406 159.191406 164.960938 159.207031 164.859375 L 159.863281 163.242188 C 159.917969 163.101562 159.863281 162.875 159.796875 162.753906 C 159.726562 162.632812 159.570312 162.492188 159.414062 162.460938 C 159.257812 162.425781 159.070312 162.425781 158.929688 162.527344 L 158.808594 162.632812 C 158.738281 162.703125 158.671875 162.808594 158.652344 162.910156 Z M 158.652344 162.910156 " fill-opacity="1" fill-rule="nonzero"/><path fill="#ffabab" d="M 161.890625 163.222656 C 161.648438 163.625 161.421875 164.003906 161.179688 164.40625 C 160.9375 164.804688 161.078125 164.734375 161.113281 164.890625 C 161.144531 165.046875 161.265625 165.1875 161.40625 165.273438 C 161.542969 165.363281 161.71875 165.394531 161.890625 165.34375 C 162.0625 165.292969 162.183594 165.207031 162.273438 165.046875 C 162.515625 164.648438 162.738281 164.265625 162.980469 163.867188 C 163.222656 163.46875 163.085938 163.535156 163.050781 163.378906 C 163.015625 163.222656 162.894531 163.085938 162.757812 162.996094 C 162.617188 162.910156 162.445312 162.875 162.273438 162.929688 C 162.097656 162.980469 161.976562 163.066406 161.890625 163.222656 Z M 161.890625 163.222656 " fill-opacity="1" fill-rule="nonzero"/><path fill="#ffabab" d="M 213.191406 162.25 C 213.019531 162.546875 212.84375 162.859375 212.671875 163.152344 C 212.585938 163.292969 212.570312 163.484375 212.601562 163.640625 C 212.636719 163.796875 212.757812 163.9375 212.898438 164.023438 C 213.035156 164.109375 213.210938 164.144531 213.382812 164.09375 C 213.554688 164.039062 213.675781 163.953125 213.761719 163.796875 C 213.9375 163.5 214.109375 163.1875 214.28125 162.894531 C 214.371094 162.753906 214.386719 162.5625 214.351562 162.40625 C 214.316406 162.25 214.195312 162.113281 214.058594 162.023438 C 213.917969 161.9375 213.746094 161.902344 213.574219 161.953125 C 213.398438 162.007812 213.277344 162.09375 213.191406 162.25 Z M 213.191406 162.25 " fill-opacity="1" fill-rule="nonzero"/><path fill="#ffabab" d="M 216.984375 161.953125 C 216.722656 162.460938 216.445312 162.964844 216.1875 163.46875 C 216.117188 163.605469 216.082031 163.78125 216.117188 163.953125 C 216.152344 164.128906 216.273438 164.25 216.414062 164.335938 C 216.707031 164.492188 217.105469 164.421875 217.261719 164.109375 C 217.519531 163.605469 217.796875 163.101562 218.058594 162.597656 C 218.125 162.460938 218.160156 162.285156 218.125 162.113281 C 218.089844 161.9375 217.96875 161.816406 217.832031 161.730469 C 217.539062 161.574219 217.140625 161.640625 216.984375 161.953125 Z M 216.984375 161.953125 " fill-opacity="1" fill-rule="nonzero"/><path fill="#ffabab" d="M 221.019531 161.953125 C 220.621094 162.492188 220.222656 163.03125 219.839844 163.570312 C 219.460938 164.109375 219.738281 163.917969 219.769531 164.058594 C 219.804688 164.195312 219.925781 164.351562 220.066406 164.441406 C 220.203125 164.527344 220.378906 164.5625 220.550781 164.511719 L 220.707031 164.441406 C 220.792969 164.386719 220.878906 164.300781 220.929688 164.214844 C 221.328125 163.675781 221.726562 163.136719 222.109375 162.597656 C 222.195312 162.476562 222.210938 162.25 222.175781 162.113281 C 222.144531 161.972656 222.023438 161.816406 221.882812 161.730469 C 221.746094 161.640625 221.570312 161.609375 221.398438 161.660156 L 221.242188 161.730469 C 221.15625 161.78125 221.070312 161.867188 221.019531 161.953125 Z M 221.019531 161.953125 " fill-opacity="1" fill-rule="nonzero"/><path fill="#000000" d="M 229.121094 156.046875 C 234.835938 155.453125 240.53125 154.863281 246.242188 154.273438 C 247.421875 154.152344 247.4375 152.273438 246.242188 152.394531 C 240.53125 152.988281 234.835938 153.578125 229.121094 154.167969 C 227.941406 154.289062 227.925781 156.167969 229.121094 156.046875 Z M 229.121094 156.046875 " fill-opacity="1" fill-rule="nonzero"/><path fill="#000000" d="M 230.816406 162.164062 C 235.90625 162.007812 240.980469 162.285156 246 163.050781 C 247.179688 163.222656 247.679688 161.417969 246.503906 161.242188 C 241.308594 160.460938 236.082031 160.113281 230.816406 160.285156 C 229.621094 160.320312 229.605469 162.199219 230.816406 162.164062 Z M 230.816406 162.164062 " fill-opacity="1" fill-rule="nonzero"/><path fill="#000000" d="M 143.539062 156.046875 C 137.824219 155.453125 132.128906 154.863281 126.414062 154.273438 C 125.238281 154.152344 125.21875 152.273438 126.414062 152.394531 C 132.128906 152.988281 137.824219 153.578125 143.539062 154.167969 C 144.714844 154.289062 144.734375 156.167969 143.539062 156.046875 Z M 143.539062 156.046875 " fill-opacity="1" fill-rule="nonzero"/><path fill="#000000" d="M 141.839844 162.164062 C 136.75 162.007812 131.679688 162.285156 126.65625 163.050781 C 125.480469 163.222656 124.976562 161.417969 126.15625 161.242188 C 131.347656 160.460938 136.578125 160.113281 141.839844 160.285156 C 143.035156 160.320312 143.054688 162.199219 141.839844 162.164062 Z M 141.839844 162.164062 " fill-opacity="1" fill-rule="nonzero"/><g fill="#000000" fill-opacity="1"><g transform="translate(90.407356, 113.214414)"><g><path d="M 10.171875 -12.796875 C 10.285156 -12.890625 10.421875 -12.921875 10.578125 -12.890625 L 12.0625 -12.640625 C 12 -11.441406 11.679688 -10.300781 11.109375 -9.21875 C 10.535156 -8.132812 9.625 -7.113281 8.375 -6.15625 C 7.28125 -5.3125 6.140625 -4.738281 4.953125 -4.4375 C 3.765625 -4.132812 2.597656 -4.082031 1.453125 -4.28125 C 0.304688 -4.488281 -0.800781 -4.929688 -1.875 -5.609375 C -2.957031 -6.285156 -3.9375 -7.195312 -4.8125 -8.34375 C -5.695312 -9.488281 -6.320312 -10.671875 -6.6875 -11.890625 C -7.0625 -13.117188 -7.179688 -14.328125 -7.046875 -15.515625 C -6.921875 -16.710938 -6.546875 -17.847656 -5.921875 -18.921875 C -5.304688 -19.992188 -4.453125 -20.953125 -3.359375 -21.796875 C -2.285156 -22.617188 -1.203125 -23.175781 -0.109375 -23.46875 C 0.984375 -23.757812 2.070312 -23.851562 3.15625 -23.75 L 3.203125 -22.296875 C 3.222656 -22.191406 3.210938 -22.085938 3.171875 -21.984375 C 3.140625 -21.878906 3.070312 -21.785156 2.96875 -21.703125 C 2.832031 -21.609375 2.617188 -21.5625 2.328125 -21.5625 C 2.046875 -21.5625 1.691406 -21.53125 1.265625 -21.46875 C 0.835938 -21.40625 0.351562 -21.273438 -0.1875 -21.078125 C -0.738281 -20.878906 -1.34375 -20.53125 -2 -20.03125 C -2.78125 -19.425781 -3.390625 -18.734375 -3.828125 -17.953125 C -4.265625 -17.179688 -4.523438 -16.359375 -4.609375 -15.484375 C -4.691406 -14.617188 -4.578125 -13.710938 -4.265625 -12.765625 C -3.953125 -11.816406 -3.4375 -10.878906 -2.71875 -9.953125 C -2 -9.003906 -1.21875 -8.265625 -0.375 -7.734375 C 0.46875 -7.210938 1.320312 -6.875 2.1875 -6.71875 C 3.050781 -6.570312 3.898438 -6.609375 4.734375 -6.828125 C 5.578125 -7.046875 6.367188 -7.441406 7.109375 -8.015625 C 7.554688 -8.347656 7.941406 -8.679688 8.265625 -9.015625 C 8.585938 -9.359375 8.863281 -9.703125 9.09375 -10.046875 C 9.320312 -10.398438 9.5 -10.765625 9.625 -11.140625 C 9.75 -11.515625 9.851562 -11.921875 9.9375 -12.359375 C 9.976562 -12.566406 10.054688 -12.710938 10.171875 -12.796875 Z M 10.171875 -12.796875 "/></g></g></g><g fill="#000000" fill-opacity="1"><g transform="translate(113.66862, 96.685685)"><g><path d="M 2.46875 -12.296875 C 3.132812 -12.628906 3.679688 -13.003906 4.109375 -13.421875 C 4.546875 -13.847656 4.863281 -14.296875 5.0625 -14.765625 C 5.269531 -15.234375 5.351562 -15.71875 5.3125 -16.21875 C 5.28125 -16.71875 5.132812 -17.222656 4.875 -17.734375 C 4.363281 -18.742188 3.644531 -19.335938 2.71875 -19.515625 C 1.789062 -19.703125 0.65625 -19.457031 -0.6875 -18.78125 L -3.203125 -17.5 L 0.046875 -11.0625 Z M 14.8125 -7.453125 L 12.75 -6.421875 C 12.332031 -6.210938 11.9375 -6.21875 11.5625 -6.4375 L 4.0625 -10.3125 C 3.832031 -10.4375 3.617188 -10.5 3.421875 -10.5 C 3.222656 -10.507812 2.960938 -10.429688 2.640625 -10.265625 L 0.890625 -9.375 L 4.484375 -2.25 L 2.171875 -1.09375 L -6.4375 -18.171875 L -1.609375 -20.609375 C -0.523438 -21.148438 0.460938 -21.507812 1.359375 -21.6875 C 2.253906 -21.863281 3.066406 -21.875 3.796875 -21.71875 C 4.523438 -21.570312 5.15625 -21.265625 5.6875 -20.796875 C 6.226562 -20.335938 6.679688 -19.75 7.046875 -19.03125 C 7.347656 -18.425781 7.535156 -17.8125 7.609375 -17.1875 C 7.691406 -16.5625 7.65625 -15.945312 7.5 -15.34375 C 7.34375 -14.75 7.078125 -14.175781 6.703125 -13.625 C 6.335938 -13.070312 5.863281 -12.550781 5.28125 -12.0625 C 5.65625 -12.039062 6.03125 -11.929688 6.40625 -11.734375 Z M 14.8125 -7.453125 "/></g></g></g><g fill="#000000" fill-opacity="1"><g transform="translate(138.629852, 85.22576)"><g><path d="M 7.125 -10 L 9.25 -2.671875 L 6.75 -1.953125 L 4.625 -9.28125 L -5.296875 -18.390625 L -3.125 -19.015625 C -2.90625 -19.078125 -2.710938 -19.070312 -2.546875 -19 C -2.378906 -18.925781 -2.226562 -18.816406 -2.09375 -18.671875 L 4.171875 -12.765625 C 4.421875 -12.503906 4.644531 -12.257812 4.84375 -12.03125 C 5.039062 -11.8125 5.234375 -11.582031 5.421875 -11.34375 C 5.429688 -11.632812 5.457031 -11.925781 5.5 -12.21875 C 5.550781 -12.519531 5.597656 -12.84375 5.640625 -13.1875 L 7.78125 -21.53125 C 7.8125 -21.707031 7.878906 -21.875 7.984375 -22.03125 C 8.085938 -22.195312 8.242188 -22.304688 8.453125 -22.359375 L 10.640625 -23 Z M 7.125 -10 "/></g></g></g><g fill="#000000" fill-opacity="1"><g transform="translate(165.052745, 78.431753)"><g><path d="M 19.265625 -11.171875 C 19.378906 -9.742188 19.257812 -8.414062 18.90625 -7.1875 C 18.550781 -5.957031 17.992188 -4.878906 17.234375 -3.953125 C 16.472656 -3.035156 15.535156 -2.285156 14.421875 -1.703125 C 13.304688 -1.128906 12.050781 -0.785156 10.65625 -0.671875 C 9.25 -0.554688 7.945312 -0.691406 6.75 -1.078125 C 5.5625 -1.460938 4.519531 -2.046875 3.625 -2.828125 C 2.726562 -3.617188 2.003906 -4.59375 1.453125 -5.75 C 0.910156 -6.90625 0.582031 -8.195312 0.46875 -9.625 C 0.34375 -11.050781 0.453125 -12.378906 0.796875 -13.609375 C 1.148438 -14.847656 1.707031 -15.929688 2.46875 -16.859375 C 3.226562 -17.785156 4.160156 -18.535156 5.265625 -19.109375 C 6.378906 -19.679688 7.640625 -20.023438 9.046875 -20.140625 C 10.441406 -20.253906 11.738281 -20.117188 12.9375 -19.734375 C 14.132812 -19.359375 15.179688 -18.773438 16.078125 -17.984375 C 16.972656 -17.191406 17.695312 -16.210938 18.25 -15.046875 C 18.800781 -13.890625 19.140625 -12.597656 19.265625 -11.171875 Z M 16.609375 -10.953125 C 16.503906 -12.128906 16.253906 -13.171875 15.859375 -14.078125 C 15.460938 -14.984375 14.945312 -15.726562 14.3125 -16.3125 C 13.675781 -16.90625 12.925781 -17.335938 12.0625 -17.609375 C 11.195312 -17.890625 10.253906 -17.988281 9.234375 -17.90625 C 8.210938 -17.820312 7.296875 -17.570312 6.484375 -17.15625 C 5.679688 -16.738281 5.007812 -16.1875 4.46875 -15.5 C 3.9375 -14.820312 3.546875 -14.003906 3.296875 -13.046875 C 3.054688 -12.085938 2.988281 -11.019531 3.09375 -9.84375 C 3.1875 -8.675781 3.429688 -7.640625 3.828125 -6.734375 C 4.234375 -5.835938 4.753906 -5.085938 5.390625 -4.484375 C 6.035156 -3.890625 6.785156 -3.457031 7.640625 -3.1875 C 8.503906 -2.925781 9.445312 -2.835938 10.46875 -2.921875 C 11.488281 -3.003906 12.40625 -3.25 13.21875 -3.65625 C 14.03125 -4.0625 14.703125 -4.609375 15.234375 -5.296875 C 15.765625 -5.992188 16.148438 -6.816406 16.390625 -7.765625 C 16.628906 -8.722656 16.703125 -9.785156 16.609375 -10.953125 Z M 16.609375 -10.953125 "/></g></g></g><g fill="#000000" fill-opacity="1"><g transform="translate(197.04337, 77.146611)"><g><path d="M 13.90625 -14.6875 C 13.820312 -14.570312 13.726562 -14.484375 13.625 -14.421875 C 13.519531 -14.367188 13.40625 -14.347656 13.28125 -14.359375 C 13.125 -14.378906 12.953125 -14.472656 12.765625 -14.640625 C 12.585938 -14.816406 12.351562 -15.015625 12.0625 -15.234375 C 11.769531 -15.453125 11.421875 -15.65625 11.015625 -15.84375 C 10.609375 -16.039062 10.097656 -16.171875 9.484375 -16.234375 C 8.910156 -16.296875 8.394531 -16.273438 7.9375 -16.171875 C 7.476562 -16.078125 7.085938 -15.910156 6.765625 -15.671875 C 6.441406 -15.441406 6.179688 -15.15625 5.984375 -14.8125 C 5.796875 -14.46875 5.679688 -14.09375 5.640625 -13.6875 C 5.578125 -13.144531 5.65625 -12.6875 5.875 -12.3125 C 6.101562 -11.9375 6.421875 -11.601562 6.828125 -11.3125 C 7.234375 -11.019531 7.695312 -10.75 8.21875 -10.5 C 8.738281 -10.257812 9.269531 -10.007812 9.8125 -9.75 C 10.351562 -9.488281 10.882812 -9.203125 11.40625 -8.890625 C 11.9375 -8.585938 12.394531 -8.226562 12.78125 -7.8125 C 13.164062 -7.40625 13.457031 -6.914062 13.65625 -6.34375 C 13.863281 -5.769531 13.925781 -5.09375 13.84375 -4.3125 C 13.75 -3.476562 13.515625 -2.710938 13.140625 -2.015625 C 12.773438 -1.316406 12.289062 -0.726562 11.6875 -0.25 C 11.09375 0.226562 10.378906 0.578125 9.546875 0.796875 C 8.722656 1.023438 7.804688 1.082031 6.796875 0.96875 C 5.554688 0.832031 4.457031 0.484375 3.5 -0.078125 C 2.550781 -0.640625 1.757812 -1.335938 1.125 -2.171875 L 2 -3.328125 C 2.082031 -3.410156 2.175781 -3.476562 2.28125 -3.53125 C 2.394531 -3.59375 2.515625 -3.613281 2.640625 -3.59375 C 2.753906 -3.582031 2.878906 -3.519531 3.015625 -3.40625 C 3.148438 -3.300781 3.300781 -3.164062 3.46875 -3 C 3.644531 -2.84375 3.84375 -2.664062 4.0625 -2.46875 C 4.28125 -2.269531 4.535156 -2.082031 4.828125 -1.90625 C 5.117188 -1.738281 5.453125 -1.582031 5.828125 -1.4375 C 6.210938 -1.300781 6.644531 -1.207031 7.125 -1.15625 C 7.738281 -1.09375 8.289062 -1.117188 8.78125 -1.234375 C 9.269531 -1.347656 9.695312 -1.539062 10.0625 -1.8125 C 10.4375 -2.082031 10.734375 -2.414062 10.953125 -2.8125 C 11.179688 -3.21875 11.320312 -3.6875 11.375 -4.21875 C 11.4375 -4.789062 11.359375 -5.269531 11.140625 -5.65625 C 10.921875 -6.050781 10.613281 -6.394531 10.21875 -6.6875 C 9.820312 -6.988281 9.359375 -7.253906 8.828125 -7.484375 C 8.296875 -7.722656 7.757812 -7.960938 7.21875 -8.203125 C 6.675781 -8.441406 6.144531 -8.710938 5.625 -9.015625 C 5.101562 -9.316406 4.648438 -9.679688 4.265625 -10.109375 C 3.878906 -10.546875 3.582031 -11.0625 3.375 -11.65625 C 3.175781 -12.25 3.125 -12.96875 3.21875 -13.8125 C 3.289062 -14.476562 3.492188 -15.109375 3.828125 -15.703125 C 4.160156 -16.304688 4.601562 -16.820312 5.15625 -17.25 C 5.707031 -17.6875 6.363281 -18.007812 7.125 -18.21875 C 7.894531 -18.4375 8.753906 -18.488281 9.703125 -18.375 C 10.753906 -18.257812 11.695312 -17.988281 12.53125 -17.5625 C 13.363281 -17.132812 14.078125 -16.5625 14.671875 -15.84375 Z M 13.90625 -14.6875 "/></g></g></g><g fill="#000000" fill-opacity="1"><g transform="translate(222.298633, 81.022335)"><g><path d="M 4.859375 1.28125 L 2.359375 0.625 L 7.25 -17.859375 L 9.75 -17.203125 Z M 4.859375 1.28125 "/></g></g></g><g fill="#000000" fill-opacity="1"><g transform="translate(240.036296, 86.185116)"><g><path d="M 14.375 -1.375 L 14.8125 -9.703125 C 14.820312 -9.941406 14.84375 -10.21875 14.875 -10.53125 C 14.914062 -10.851562 14.96875 -11.195312 15.03125 -11.5625 C 14.5625 -10.96875 14.132812 -10.492188 13.75 -10.140625 L 7.859375 -4.265625 Z M 16.4375 7.3125 L 14.609375 6.5 C 14.398438 6.40625 14.253906 6.273438 14.171875 6.109375 C 14.085938 5.953125 14.050781 5.773438 14.0625 5.578125 L 14.28125 0.625 L 6.453125 -2.859375 L 2.953125 0.640625 C 2.835938 0.765625 2.6875 0.851562 2.5 0.90625 C 2.3125 0.957031 2.113281 0.9375 1.90625 0.84375 L 0.078125 0.03125 L 14.8125 -14.328125 L 17.21875 -13.265625 Z M 16.4375 7.3125 "/></g></g></g><g fill="#000000" fill-opacity="1"><g transform="translate(265.821412, 98.492857)"><g><path d="M 29.328125 -2.203125 L 18.015625 13.21875 L 16.171875 11.875 L 24.484375 0.546875 C 24.597656 0.398438 24.722656 0.242188 24.859375 0.078125 C 25.003906 -0.0859375 25.148438 -0.253906 25.296875 -0.421875 L 12.9375 5.328125 C 12.519531 5.523438 12.144531 5.503906 11.8125 5.265625 L 11.515625 5.03125 C 11.179688 4.789062 11.046875 4.445312 11.109375 4 L 12.828125 -9.640625 C 12.585938 -9.234375 12.347656 -8.867188 12.109375 -8.546875 L 3.796875 2.78125 L 1.96875 1.4375 L 13.28125 -13.984375 L 14.8125 -12.859375 C 15.007812 -12.710938 15.144531 -12.582031 15.21875 -12.46875 C 15.289062 -12.363281 15.316406 -12.191406 15.296875 -11.953125 L 13.625 1.4375 C 13.601562 1.675781 13.5625 1.914062 13.5 2.15625 C 13.4375 2.40625 13.375 2.660156 13.3125 2.921875 C 13.519531 2.765625 13.734375 2.617188 13.953125 2.484375 C 14.171875 2.347656 14.390625 2.234375 14.609375 2.140625 L 26.8125 -3.5 C 27.019531 -3.601562 27.1875 -3.632812 27.3125 -3.59375 C 27.4375 -3.5625 27.59375 -3.476562 27.78125 -3.34375 Z M 29.328125 -2.203125 "/></g></g></g></svg>