<svg xmlns="http://www.w3.org/2000/svg" xmlns:xlink="http://www.w3.org/1999/xlink" width="500" zoomAndPan="magnify" viewBox="0 0 375 374.999991" height="500" preserveAspectRatio="xMidYMid meet" version="1.0"><defs><g/><clipPath id="d50d689358"><path d="M 78.679688 293.710938 L 297.492188 293.710938 L 297.492188 343.859375 L 78.679688 343.859375 Z M 78.679688 293.710938 " clip-rule="nonzero"/></clipPath><clipPath id="3250ca9adf"><path d="M 188.179688 343.859375 L 78.863281 293.710938 L 297.492188 293.710938 Z M 188.179688 343.859375 " clip-rule="nonzero"/></clipPath><clipPath id="a647ab618e"><path d="M 83.933594 174.644531 L 291.066406 174.644531 L 291.066406 300.699219 L 83.933594 300.699219 Z M 83.933594 174.644531 " clip-rule="nonzero"/></clipPath><clipPath id="18f276ac62"><path d="M 78.867188 124.496094 L 297.679688 124.496094 L 297.679688 174.644531 L 78.867188 174.644531 Z M 78.867188 124.496094 " clip-rule="nonzero"/></clipPath><clipPath id="be574a6891"><path d="M 188.183594 124.496094 L 297.496094 174.644531 L 78.867188 174.644531 Z M 188.183594 124.496094 " clip-rule="nonzero"/></clipPath><clipPath id="459890e146"><path d="M 138.554688 217 L 148 217 L 148 227 L 138.554688 227 Z M 138.554688 217 " clip-rule="nonzero"/></clipPath><clipPath id="e098a0603f"><path d="M 181 208.21875 L 191 208.21875 L 191 218 L 181 218 Z M 181 208.21875 " clip-rule="nonzero"/></clipPath><clipPath id="5518c7ddd7"><path d="M 199 279 L 209 279 L 209 288.46875 L 199 288.46875 Z M 199 279 " clip-rule="nonzero"/></clipPath><clipPath id="d9e3f2d176"><path d="M 227 249 L 236.804688 249 L 236.804688 259 L 227 259 Z M 227 249 " clip-rule="nonzero"/></clipPath><clipPath id="fc20fa5fdc"><path d="M 138.554688 217 L 148 217 L 148 227 L 138.554688 227 Z M 138.554688 217 " clip-rule="nonzero"/></clipPath><clipPath id="c584a9a033"><path d="M 181 208.21875 L 191 208.21875 L 191 218 L 181 218 Z M 181 208.21875 " clip-rule="nonzero"/></clipPath><clipPath id="0ccafd5a8b"><path d="M 199 279 L 209 279 L 209 288.46875 L 199 288.46875 Z M 199 279 " clip-rule="nonzero"/></clipPath><clipPath id="b093ec6992"><path d="M 227 249 L 236.804688 249 L 236.804688 259 L 227 259 Z M 227 249 " clip-rule="nonzero"/></clipPath><clipPath id="b33e6bec50"><path d="M 137.347656 237 L 150 237 L 150 249 L 137.347656 249 Z M 137.347656 237 " clip-rule="nonzero"/></clipPath><clipPath id="d869c49ee1"><path d="M 157 270 L 172 270 L 172 283.96875 L 157 283.96875 Z M 157 270 " clip-rule="nonzero"/></clipPath><clipPath id="5a8adafa30"><path d="M 78.867188 123.507812 L 297.867188 123.507812 L 297.867188 350 L 78.867188 350 Z M 78.867188 123.507812 " clip-rule="nonzero"/></clipPath><clipPath id="1b8b713d58"><path d="M 122 84.246094 L 250 84.246094 L 250 177 L 122 177 Z M 122 84.246094 " clip-rule="nonzero"/></clipPath><clipPath id="831e269508"><path d="M 83.039062 172 L 290 172 L 290 178 L 83.039062 178 Z M 83.039062 172 " clip-rule="nonzero"/></clipPath></defs><g clip-path="url(#d50d689358)"><g clip-path="url(#3250ca9adf)"><path fill="#ffffff" d="M 297.492188 343.859375 L 78.875 343.859375 L 78.875 293.710938 L 297.492188 293.710938 Z M 297.492188 343.859375 " fill-opacity="1" fill-rule="nonzero"/></g></g><g clip-path="url(#a647ab618e)"><path fill="#ffffff" d="M 83.933594 174.644531 L 291.234375 174.644531 L 291.234375 300.699219 L 83.933594 300.699219 Z M 83.933594 174.644531 " fill-opacity="1" fill-rule="nonzero"/></g><g clip-path="url(#18f276ac62)"><g clip-path="url(#be574a6891)"><path fill="#ffffff" d="M 78.867188 124.496094 L 297.484375 124.496094 L 297.484375 174.644531 L 78.867188 174.644531 Z M 78.867188 124.496094 " fill-opacity="1" fill-rule="nonzero"/></g></g><path fill="#0077b6" d="M 256.105469 216.609375 C 272.554688 251.054688 256.523438 297.199219 218.152344 315.523438 C 179.785156 333.847656 135.347656 320.78125 118.894531 286.335938 C 102.445312 251.890625 120.214844 209.113281 158.582031 190.789062 C 196.949219 172.464844 239.652344 182.164062 256.105469 216.609375 Z M 256.105469 216.609375 " fill-opacity="1" fill-rule="nonzero"/><path fill="#cce1f6" d="M 247.035156 218.136719 C 258.566406 239.121094 254.605469 252.71875 237.472656 271.515625 C 233.746094 275.601562 223.03125 282.878906 219.355469 286.722656 C 214.03125 292.296875 209.664062 301.011719 203.835938 304.214844 C 170.773438 322.378906 143.730469 313.8125 127.304688 283.921875 C 110.882812 254.03125 124.371094 215.074219 157.433594 196.90625 C 190.496094 178.742188 230.609375 188.246094 247.035156 218.136719 Z M 247.035156 218.136719 " fill-opacity="1" fill-rule="nonzero"/><g clip-path="url(#459890e146)"><path fill="#c1121f" d="M 143.460938 217.457031 C 146.351562 217.511719 148.011719 219.082031 147.980469 221.742188 C 147.949219 224.738281 145.996094 226.664062 143.03125 226.621094 C 140.921875 226.589844 138.570312 224.234375 138.792969 222.039062 C 139.101562 218.972656 140.269531 217.414062 143.460938 217.457031 Z M 143.460938 217.457031 " fill-opacity="1" fill-rule="nonzero"/></g><path fill="#c1121f" d="M 145.9375 261.394531 C 148.828125 261.449219 150.484375 263.019531 150.457031 265.675781 C 150.425781 268.675781 148.472656 270.597656 145.507812 270.554688 C 143.394531 270.527344 141.046875 268.167969 141.269531 265.972656 C 141.578125 262.910156 142.746094 261.347656 145.9375 261.394531 Z M 145.9375 261.394531 " fill-opacity="1" fill-rule="nonzero"/><g clip-path="url(#e098a0603f)"><path fill="#c1121f" d="M 185.984375 208.265625 C 188.871094 208.316406 190.53125 209.890625 190.503906 212.546875 C 190.472656 215.546875 188.519531 217.46875 185.554688 217.425781 C 183.441406 217.398438 181.09375 215.039062 181.3125 212.84375 C 181.621094 209.78125 182.792969 208.21875 185.984375 208.265625 Z M 185.984375 208.265625 " fill-opacity="1" fill-rule="nonzero"/></g><path fill="#c1121f" d="M 166.09375 233.636719 C 168.980469 233.691406 170.640625 235.261719 170.613281 237.917969 C 170.582031 240.917969 168.628906 242.839844 165.664062 242.796875 C 163.550781 242.769531 161.203125 240.410156 161.425781 238.214844 C 161.734375 235.152344 162.902344 233.589844 166.09375 233.636719 Z M 166.09375 233.636719 " fill-opacity="1" fill-rule="nonzero"/><path fill="#c1121f" d="M 216.039062 224.441406 C 218.929688 224.496094 220.585938 226.066406 220.558594 228.726562 C 220.527344 231.722656 218.574219 233.648438 215.609375 233.605469 C 213.5 233.574219 211.148438 231.21875 211.371094 229.023438 C 211.679688 225.957031 212.847656 224.398438 216.039062 224.441406 Z M 216.039062 224.441406 " fill-opacity="1" fill-rule="nonzero"/><path fill="#c1121f" d="M 197.652344 246.808594 C 200.542969 246.859375 202.199219 248.433594 202.171875 251.089844 C 202.140625 254.089844 200.1875 256.011719 197.222656 255.96875 C 195.109375 255.941406 192.761719 253.582031 192.980469 251.386719 C 193.292969 248.324219 194.460938 246.761719 197.652344 246.808594 Z M 197.652344 246.808594 " fill-opacity="1" fill-rule="nonzero"/><path fill="#c1121f" d="M 171.75 254.410156 C 174.640625 254.464844 176.296875 256.035156 176.269531 258.695312 C 176.238281 261.691406 174.285156 263.613281 171.320312 263.574219 C 169.210938 263.542969 166.859375 261.1875 167.082031 258.988281 C 167.390625 255.925781 168.558594 254.367188 171.75 254.410156 Z M 171.75 254.410156 " fill-opacity="1" fill-rule="nonzero"/><g clip-path="url(#5518c7ddd7)"><path fill="#c1121f" d="M 203.929688 279.164062 C 206.816406 279.214844 208.476562 280.789062 208.449219 283.445312 C 208.417969 286.445312 206.464844 288.367188 203.5 288.324219 C 201.386719 288.292969 199.039062 285.9375 199.257812 283.742188 C 199.566406 280.675781 200.738281 279.117188 203.929688 279.164062 Z M 203.929688 279.164062 " fill-opacity="1" fill-rule="nonzero"/></g><g clip-path="url(#d9e3f2d176)"><path fill="#c1121f" d="M 231.863281 249.8125 C 234.753906 249.867188 236.410156 251.4375 236.382812 254.097656 C 236.351562 257.09375 234.398438 259.019531 231.433594 258.976562 C 229.324219 258.945312 226.972656 256.589844 227.195312 254.394531 C 227.503906 251.328125 228.671875 249.769531 231.863281 249.8125 Z M 231.863281 249.8125 " fill-opacity="1" fill-rule="nonzero"/></g><g clip-path="url(#fc20fa5fdc)"><path fill="#c1121f" d="M 143.460938 217.457031 C 146.351562 217.511719 148.011719 219.082031 147.980469 221.742188 C 147.949219 224.738281 145.996094 226.664062 143.03125 226.621094 C 140.921875 226.589844 138.570312 224.234375 138.792969 222.039062 C 139.101562 218.972656 140.269531 217.414062 143.460938 217.457031 Z M 143.460938 217.457031 " fill-opacity="1" fill-rule="nonzero"/></g><path fill="#c1121f" d="M 145.9375 261.394531 C 148.828125 261.449219 150.484375 263.019531 150.457031 265.675781 C 150.425781 268.675781 148.472656 270.597656 145.507812 270.554688 C 143.394531 270.527344 141.046875 268.167969 141.269531 265.972656 C 141.578125 262.910156 142.746094 261.347656 145.9375 261.394531 Z M 145.9375 261.394531 " fill-opacity="1" fill-rule="nonzero"/><g clip-path="url(#c584a9a033)"><path fill="#c1121f" d="M 185.984375 208.265625 C 188.871094 208.316406 190.53125 209.890625 190.503906 212.546875 C 190.472656 215.546875 188.519531 217.46875 185.554688 217.425781 C 183.441406 217.398438 181.09375 215.039062 181.3125 212.84375 C 181.621094 209.78125 182.792969 208.21875 185.984375 208.265625 Z M 185.984375 208.265625 " fill-opacity="1" fill-rule="nonzero"/></g><path fill="#c1121f" d="M 166.09375 233.636719 C 168.980469 233.691406 170.640625 235.261719 170.613281 237.917969 C 170.582031 240.917969 168.628906 242.839844 165.664062 242.796875 C 163.550781 242.769531 161.203125 240.410156 161.425781 238.214844 C 161.734375 235.152344 162.902344 233.589844 166.09375 233.636719 Z M 166.09375 233.636719 " fill-opacity="1" fill-rule="nonzero"/><path fill="#c1121f" d="M 216.039062 224.441406 C 218.929688 224.496094 220.585938 226.066406 220.558594 228.726562 C 220.527344 231.722656 218.574219 233.648438 215.609375 233.605469 C 213.5 233.574219 211.148438 231.21875 211.371094 229.023438 C 211.679688 225.957031 212.847656 224.398438 216.039062 224.441406 Z M 216.039062 224.441406 " fill-opacity="1" fill-rule="nonzero"/><path fill="#c1121f" d="M 197.652344 246.808594 C 200.542969 246.859375 202.199219 248.433594 202.171875 251.089844 C 202.140625 254.089844 200.1875 256.011719 197.222656 255.96875 C 195.109375 255.941406 192.761719 253.582031 192.980469 251.386719 C 193.292969 248.324219 194.460938 246.761719 197.652344 246.808594 Z M 197.652344 246.808594 " fill-opacity="1" fill-rule="nonzero"/><path fill="#c1121f" d="M 171.75 254.410156 C 174.640625 254.464844 176.296875 256.035156 176.269531 258.695312 C 176.238281 261.691406 174.285156 263.613281 171.320312 263.574219 C 169.210938 263.542969 166.859375 261.1875 167.082031 258.988281 C 167.390625 255.925781 168.558594 254.367188 171.75 254.410156 Z M 171.75 254.410156 " fill-opacity="1" fill-rule="nonzero"/><g clip-path="url(#0ccafd5a8b)"><path fill="#c1121f" d="M 203.929688 279.164062 C 206.816406 279.214844 208.476562 280.789062 208.449219 283.445312 C 208.417969 286.445312 206.464844 288.367188 203.5 288.324219 C 201.386719 288.292969 199.039062 285.9375 199.257812 283.742188 C 199.566406 280.675781 200.738281 279.117188 203.929688 279.164062 Z M 203.929688 279.164062 " fill-opacity="1" fill-rule="nonzero"/></g><g clip-path="url(#b093ec6992)"><path fill="#c1121f" d="M 231.863281 249.8125 C 234.753906 249.867188 236.410156 251.4375 236.382812 254.097656 C 236.351562 257.09375 234.398438 259.019531 231.433594 258.976562 C 229.324219 258.945312 226.972656 256.589844 227.195312 254.394531 C 227.503906 251.328125 228.671875 249.769531 231.863281 249.8125 Z M 231.863281 249.8125 " fill-opacity="1" fill-rule="nonzero"/></g><g clip-path="url(#b33e6bec50)"><path fill="#00b4d8" d="M 143.773438 237.789062 C 147.082031 237.789062 149.769531 240.476562 149.769531 243.785156 C 149.769531 247.09375 147.082031 248.339844 143.773438 248.339844 C 140.464844 248.339844 137.78125 247.09375 137.78125 243.785156 C 137.78125 240.476562 140.464844 237.789062 143.773438 237.789062 Z M 143.773438 237.789062 " fill-opacity="1" fill-rule="nonzero"/></g><path fill="#00b4d8" d="M 182.4375 218.714844 C 185.90625 220.480469 187.285156 224.726562 185.519531 228.191406 C 183.753906 231.660156 180.273438 231.53125 176.808594 229.765625 C 173.339844 228 171.195312 225.261719 172.960938 221.792969 C 174.726562 218.328125 178.972656 216.949219 182.4375 218.714844 Z M 182.4375 218.714844 " fill-opacity="1" fill-rule="nonzero"/><g clip-path="url(#d869c49ee1)"><path fill="#00b4d8" d="M 163.707031 270.742188 C 167.546875 270.132812 171.160156 272.757812 171.769531 276.601562 C 172.378906 280.445312 169.488281 282.386719 165.644531 282.992188 C 161.804688 283.601562 158.457031 282.648438 157.847656 278.804688 C 157.238281 274.964844 159.863281 271.351562 163.707031 270.742188 Z M 163.707031 270.742188 " fill-opacity="1" fill-rule="nonzero"/></g><path fill="#00b4d8" d="M 212.746094 210.980469 C 215.773438 212.523438 216.976562 216.234375 215.433594 219.261719 C 213.890625 222.289062 210.855469 222.179688 207.824219 220.636719 C 204.796875 219.09375 202.921875 216.699219 204.464844 213.671875 C 206.007812 210.644531 209.71875 209.4375 212.746094 210.980469 Z M 212.746094 210.980469 " fill-opacity="1" fill-rule="nonzero"/><path fill="#00b4d8" d="M 184.714844 248.421875 C 187.515625 247.402344 190.617188 248.847656 191.636719 251.652344 C 192.65625 254.453125 190.769531 256.335938 187.964844 257.355469 C 185.164062 258.375 182.503906 258.148438 181.484375 255.347656 C 180.464844 252.542969 181.910156 249.441406 184.714844 248.421875 Z M 184.714844 248.421875 " fill-opacity="1" fill-rule="nonzero"/><path fill="#00b4d8" d="M 231.527344 234.035156 C 234.472656 235.535156 235.644531 239.144531 234.144531 242.089844 C 232.644531 245.035156 229.6875 244.925781 226.742188 243.425781 C 223.796875 241.925781 221.972656 239.597656 223.472656 236.652344 C 224.972656 233.707031 228.582031 232.535156 231.527344 234.035156 Z M 231.527344 234.035156 " fill-opacity="1" fill-rule="nonzero"/><path fill="#00b4d8" d="M 223.34375 264.257812 C 226.8125 266.023438 226.667969 269.054688 224.902344 272.519531 C 223.136719 275.984375 221.179688 277.078125 217.714844 275.3125 C 214.246094 273.546875 212.101562 270.804688 213.867188 267.339844 C 215.632812 263.871094 219.878906 262.492188 223.34375 264.257812 Z M 223.34375 264.257812 " fill-opacity="1" fill-rule="nonzero"/><g clip-path="url(#5a8adafa30)"><path fill="#000000" d="M 295.710938 171.449219 L 189.859375 124.070312 C 189.386719 123.859375 188.886719 123.75 188.367188 123.75 C 187.847656 123.75 187.351562 123.859375 186.875 124.070312 L 81.027344 171.449219 C 80.371094 171.742188 79.847656 172.191406 79.453125 172.792969 C 79.0625 173.398438 78.867188 174.058594 78.867188 174.777344 L 78.867188 298.695312 C 78.867188 299.414062 79.0625 300.074219 79.453125 300.675781 C 79.847656 301.28125 80.371094 301.726562 81.027344 302.019531 L 186.875 349.402344 C 187.351562 349.613281 187.847656 349.722656 188.367188 349.722656 C 188.886719 349.722656 189.386719 349.613281 189.859375 349.402344 L 295.710938 302.019531 C 296.367188 301.726562 296.890625 301.28125 297.28125 300.675781 C 297.671875 300.074219 297.867188 299.414062 297.867188 298.695312 L 297.867188 174.777344 C 297.867188 174.058594 297.671875 173.398438 297.28125 172.792969 C 296.890625 172.191406 296.367188 171.742188 295.710938 171.449219 Z M 184.71875 340.449219 L 86.167969 296.335938 L 86.167969 180.652344 L 184.71875 224.769531 Z M 188.367188 218.414062 L 91.160156 174.898438 L 188.367188 131.390625 L 285.578125 174.898438 Z M 290.566406 296.335938 L 192.019531 340.449219 L 192.019531 224.769531 L 290.566406 180.652344 Z M 290.566406 296.335938 " fill-opacity="1" fill-rule="nonzero"/></g><path stroke-linecap="butt" transform="matrix(0.75, 0, 0, 0.75, 83.932785, 172.395092)" fill="none" stroke-linejoin="miter" d="M 0.00107888 2.999253 L 276.17818 2.999253 " stroke="#000000" stroke-width="6" stroke-opacity="1" stroke-miterlimit="4"/><path fill="#e8e0da" d="M 248.128906 147.945312 C 247.136719 166.628906 238.074219 174.464844 238.074219 174.464844 L 135 174.464844 C 135 174.464844 123.722656 161.667969 123.972656 142.511719 C 124.054688 136.207031 125.503906 127.980469 127.65625 119.777344 C 132.082031 102.992188 139.511719 86.292969 144.433594 86.292969 C 151.757812 86.292969 166.675781 106.257812 166.675781 106.257812 C 166.675781 106.257812 167.585938 105.949219 169.179688 105.554688 C 172.613281 104.667969 179.171875 103.261719 186.082031 103.425781 C 193.074219 103.59375 200.109375 104.9375 203.792969 105.742188 C 205.40625 106.09375 206.378906 106.363281 206.378906 106.363281 C 206.378906 106.363281 220.425781 86.625 226.34375 86.292969 C 231.226562 86.023438 239.460938 102.144531 244.300781 119.921875 C 246.929688 129.574219 248.5625 139.699219 248.128906 147.945312 Z M 248.128906 147.945312 " fill-opacity="1" fill-rule="nonzero"/><path fill="#7f6f67" d="M 244.300781 119.921875 C 237.828125 120.914062 229.921875 121.203125 221.792969 119.28125 C 209.855469 116.46875 205.488281 110.453125 203.792969 105.761719 C 205.40625 106.113281 206.378906 106.382812 206.378906 106.382812 C 206.378906 106.382812 220.425781 86.644531 226.34375 86.3125 C 231.226562 86.046875 239.460938 102.167969 244.300781 119.941406 Z M 244.300781 119.921875 " fill-opacity="1" fill-rule="nonzero"/><path fill="#7f6f67" d="M 169.160156 105.554688 C 167.503906 110.289062 163.179688 116.425781 151.074219 119.28125 C 142.53125 121.304688 134.277344 120.890625 127.632812 119.777344 C 132.0625 102.992188 139.488281 86.292969 144.414062 86.292969 C 151.738281 86.292969 166.65625 106.257812 166.65625 106.257812 C 166.65625 106.257812 167.566406 105.949219 169.160156 105.554688 Z M 169.160156 105.554688 " fill-opacity="1" fill-rule="nonzero"/><g clip-path="url(#1b8b713d58)"><path fill="#000000" d="M 134.070312 176.53125 C 133.71875 176.34375 133.386719 176.035156 133.160156 175.722656 C 133.160156 175.722656 133.160156 175.703125 133.160156 175.703125 L 133.015625 175.476562 C 132.910156 175.3125 132.828125 175.167969 132.746094 175 C 132.226562 174.132812 131.710938 173.140625 131.214844 172.273438 C 126.125 162.785156 122.316406 152.265625 122.546875 141.375 C 122.667969 137.34375 123.269531 133.355469 124.015625 129.40625 C 126.105469 118.949219 129.269531 108.78125 133.46875 99.003906 C 135.515625 94.644531 138.414062 86.542969 143.359375 84.929688 C 146.191406 84.246094 149.214844 86.375 151.304688 87.96875 C 157.40625 92.84375 163.117188 99.292969 168.496094 104.957031 C 168.496094 104.957031 165.992188 104.171875 165.992188 104.171875 C 171.101562 103.21875 176.214844 102.496094 181.40625 102.230469 C 188.234375 101.878906 195.0625 102.664062 201.828125 103.53125 C 203.523438 103.757812 205.199219 103.984375 206.957031 104.234375 L 204.539062 105.101562 C 207.558594 101.753906 212.152344 96.585938 215.273438 93.382812 C 217.15625 91.480469 219.019531 89.601562 221.066406 87.84375 C 222.125 86.976562 223.199219 86.128906 224.625 85.488281 C 225.453125 85.15625 226.34375 84.949219 227.253906 85.136719 C 228.183594 85.320312 228.890625 85.777344 229.507812 86.210938 C 231.742188 87.925781 233.296875 90.304688 234.742188 92.636719 C 241.363281 104.089844 245.460938 116.863281 247.945312 129.820312 C 249.453125 138.292969 250.035156 147.058594 248.460938 155.574219 C 247.199219 162.578125 244.738281 169.566406 240.351562 175.269531 C 240.125 175.558594 239.8125 175.929688 239.566406 176.199219 C 239.152344 176.59375 238.613281 176.757812 238.09375 176.757812 C 203.441406 176.757812 168.746094 176.695312 134.109375 176.550781 Z M 135.929688 172.417969 C 170.007812 172.292969 204.019531 172.210938 238.074219 172.210938 C 238.074219 172.210938 236.585938 172.769531 236.605469 172.746094 C 236.605469 172.746094 236.648438 172.726562 236.648438 172.726562 L 236.730469 172.664062 L 236.894531 172.542969 C 240.804688 169.234375 243.226562 164.460938 244.839844 159.664062 C 247.902344 150.136719 247.34375 139.96875 245.359375 130.234375 C 242.75 117.667969 238.921875 105.101562 232.507812 93.921875 C 231.414062 92.140625 228.308594 87.140625 226.054688 87.554688 C 224.773438 87.886719 223.632812 88.648438 222.476562 89.519531 C 220.488281 91.046875 218.6875 92.929688 217.054688 94.910156 C 215.441406 96.8125 213.785156 99.023438 212.359375 101.070312 C 210.890625 103.199219 209.460938 105.390625 208.21875 107.621094 C 207.804688 108.347656 207 108.71875 206.234375 108.574219 C 199.882812 106.445312 193.199219 104.957031 186.496094 104.730469 C 181.59375 104.5625 176.667969 105.289062 171.953125 106.671875 C 170.773438 107.023438 169.613281 107.417969 168.476562 107.871094 C 168.101562 108.015625 167.710938 108.179688 167.398438 108.347656 C 166.613281 108.738281 165.683594 108.53125 165.144531 107.871094 L 164.894531 107.5625 C 160.882812 101.050781 153.226562 90.984375 146.132812 88.113281 C 146.132812 88.113281 145.738281 87.988281 145.738281 87.988281 C 145.367188 87.863281 145.035156 87.800781 144.660156 87.78125 C 144.558594 87.78125 144.433594 87.761719 144.394531 87.78125 C 144.269531 87.78125 144.101562 87.84375 143.957031 87.925781 C 142.574219 88.691406 141.433594 90.21875 140.484375 91.542969 C 138.621094 94.148438 137.070312 96.957031 135.746094 99.914062 C 130.65625 111.859375 127.199219 124.652344 125.730469 137.550781 C 125.546875 139.472656 125.378906 141.394531 125.421875 143.316406 C 125.421875 146.480469 125.628906 149.785156 126.25 152.867188 C 126.25 152.867188 126.640625 154.746094 126.640625 154.746094 L 126.746094 155.222656 C 127.199219 156.917969 127.71875 158.632812 128.359375 160.265625 C 130.179688 164.851562 132.703125 169.277344 136.367188 172.625 C 136.367188 172.625 136.53125 172.769531 136.53125 172.769531 L 136.550781 172.769531 C 136.550781 172.769531 136.574219 172.808594 136.550781 172.769531 C 136.511719 172.707031 136.449219 172.644531 136.367188 172.582031 C 136.242188 172.457031 136.074219 172.375 135.910156 172.3125 Z M 135.929688 172.417969 " fill-opacity="1" fill-rule="nonzero"/></g><path fill="#ffc5c5" d="M 136.199219 116.570312 C 138.808594 118.597656 158.441406 114.546875 160.695312 109.089844 C 161.773438 106.507812 149.296875 95.097656 145.097656 96.007812 C 140.898438 96.917969 134.484375 115.230469 136.199219 116.550781 Z M 136.199219 116.570312 " fill-opacity="1" fill-rule="nonzero"/><path fill="#ffc5c5" d="M 236.460938 116.570312 C 233.855469 118.597656 214.21875 114.546875 211.964844 109.089844 C 210.890625 106.507812 222.722656 95.097656 226.921875 96.007812 C 231.125 96.917969 238.15625 115.230469 236.460938 116.550781 Z M 236.460938 116.570312 " fill-opacity="1" fill-rule="nonzero"/><g clip-path="url(#831e269508)"><path fill="#000000" d="M 287.355469 177.894531 L 85.71875 177.894531 C 84.269531 177.894531 83.089844 176.714844 83.089844 175.269531 C 83.089844 173.824219 84.269531 172.644531 85.71875 172.644531 L 287.355469 172.644531 C 288.804688 172.644531 289.984375 173.824219 289.984375 175.269531 C 289.984375 176.714844 288.804688 177.894531 287.355469 177.894531 Z M 287.355469 177.894531 " fill-opacity="1" fill-rule="nonzero"/></g><path fill="#7f6f67" d="M 252.308594 161.546875 C 266.875 163.59375 273.804688 168.492188 272.5625 175.867188 C 271.324219 183.246094 260.460938 179.941406 260.460938 179.941406 C 260.460938 179.941406 257.191406 180.933594 253.300781 180.582031 C 249.660156 180.25 246 177.875 246 177.875 C 246 177.875 243.289062 178.925781 237.785156 177.273438 C 234.289062 176.242188 232.15625 171.550781 235.117188 167.1875 C 237.433594 163.757812 242.875 160.222656 252.308594 161.546875 Z M 252.308594 161.546875 " fill-opacity="1" fill-rule="nonzero"/><path fill="#000000" d="M 252.558594 159.746094 C 260.335938 160.925781 271.09375 162.785156 273.621094 171.609375 C 274.074219 173.328125 273.992188 175.144531 273.597656 176.839844 C 271.964844 182.792969 264.804688 182.359375 259.945312 181.636719 C 259.945312 181.636719 260.976562 181.636719 260.976562 181.636719 C 258.371094 182.6875 255.558594 182.9375 252.765625 182.503906 C 249.910156 181.988281 247.53125 180.707031 245.398438 178.824219 C 245.378906 178.824219 246.414062 178.925781 246.414062 178.925781 C 246.226562 179.011719 246.121094 179.050781 246 179.113281 C 243.515625 180.066406 240.742188 179.835938 238.21875 179.257812 C 234.910156 178.636719 232.632812 176.136719 232.21875 172.851562 C 231.722656 168.882812 234.269531 165.347656 237.101562 162.867188 C 241.40625 159.4375 247.324219 159.046875 252.558594 159.769531 Z M 252.0625 163.34375 C 246.910156 162.601562 241.300781 163.40625 237.269531 166.835938 C 235.777344 168.179688 234.886719 170.433594 235.386719 172.3125 C 235.800781 173.988281 236.976562 175.226562 238.550781 175.664062 C 240.765625 176.34375 243.082031 176.882812 245.398438 176.839844 C 245.503906 176.839844 246.453125 176.945312 246.597656 176.945312 C 248.710938 177.644531 251.046875 178.453125 253.21875 178.578125 C 255.164062 178.679688 257.171875 178.535156 259.136719 178.328125 C 259.714844 178.246094 260.398438 178.246094 260.976562 178.246094 C 264.308594 179.773438 270.640625 180.332031 271.34375 175.683594 C 272.003906 171.609375 269.832031 169.378906 266.460938 167.601562 C 262.074219 165.183594 257.066406 164.128906 252.0625 163.34375 Z M 252.0625 163.34375 " fill-opacity="1" fill-rule="nonzero"/><path fill="#7f6f67" d="M 124.695312 161.546875 C 110.132812 163.59375 103.199219 168.492188 104.441406 175.867188 C 105.683594 183.246094 116.546875 179.941406 116.546875 179.941406 C 116.546875 179.941406 119.8125 180.933594 123.703125 180.582031 C 127.34375 180.25 131.007812 177.875 131.007812 177.875 C 131.007812 177.875 133.71875 178.925781 139.222656 177.273438 C 142.71875 176.242188 144.847656 171.550781 141.890625 167.1875 C 139.574219 163.757812 134.132812 160.222656 124.695312 161.546875 Z M 124.695312 161.546875 " fill-opacity="1" fill-rule="nonzero"/><path fill="#7f6f67" d="M 161.214844 135.730469 C 146.441406 136.207031 137.441406 161.9375 156.332031 167.292969 C 170.109375 171.21875 219.804688 171.714844 227.585938 164.210938 C 236.234375 155.882812 225.597656 137.117188 213.039062 136.371094 C 194.832031 135.296875 194.8125 124.507812 186.539062 124.40625 C 177.207031 124.300781 178.71875 135.171875 161.214844 135.730469 Z M 161.214844 135.730469 " fill-opacity="1" fill-rule="nonzero"/><path fill="#000000" d="M 124.449219 159.746094 C 129.683594 159.023438 135.621094 159.4375 139.902344 162.847656 C 142.738281 165.328125 145.28125 168.863281 144.785156 172.832031 C 144.371094 176.136719 142.097656 178.636719 138.785156 179.238281 C 136.261719 179.816406 133.488281 180.042969 131.007812 179.09375 C 130.882812 179.03125 130.78125 178.988281 130.59375 178.90625 C 130.59375 178.90625 131.628906 178.804688 131.605469 178.804688 C 129.476562 180.683594 127.097656 181.964844 124.242188 182.484375 C 121.429688 182.917969 118.636719 182.667969 116.027344 181.613281 C 116.027344 181.613281 117.0625 181.613281 117.0625 181.613281 C 112.199219 182.339844 105.042969 182.773438 103.40625 176.820312 C 102.992188 175.125 102.910156 173.304688 103.386719 171.589844 C 105.910156 162.765625 116.648438 160.90625 124.449219 159.726562 Z M 124.945312 163.34375 C 119.9375 164.128906 114.929688 165.183594 110.546875 167.601562 C 107.171875 169.378906 105 171.609375 105.664062 175.683594 C 106.367188 180.355469 112.71875 179.773438 116.027344 178.246094 C 116.605469 178.246094 117.269531 178.246094 117.871094 178.328125 C 119.8125 178.535156 121.820312 178.679688 123.785156 178.578125 C 125.957031 178.433594 128.296875 177.644531 130.40625 176.945312 C 130.550781 176.945312 131.503906 176.820312 131.605469 176.839844 C 133.925781 176.882812 136.242188 176.34375 138.457031 175.664062 C 140.027344 175.226562 141.207031 173.988281 141.621094 172.3125 C 142.136719 170.433594 141.226562 168.179688 139.738281 166.835938 C 135.703125 163.40625 130.097656 162.621094 124.945312 163.34375 Z M 124.945312 163.34375 " fill-opacity="1" fill-rule="nonzero"/><path fill="#000000" d="M 191.980469 152.824219 C 190.863281 153.300781 189.394531 153.753906 188.277344 153.03125 C 187.882812 152.78125 187.59375 152.429688 187.363281 152.058594 C 188.773438 151.667969 190.34375 150.46875 190.34375 149.601562 C 190.34375 148.730469 188.628906 147.863281 186.515625 147.863281 C 184.40625 147.863281 182.6875 148.546875 182.6875 149.601562 C 182.6875 150.652344 184.21875 151.6875 185.667969 152.078125 C 185.441406 152.472656 185.152344 152.804688 184.777344 153.050781 C 183.660156 153.773438 182.214844 153.320312 181.074219 152.84375 C 180.308594 152.515625 179.628906 153.652344 180.414062 153.980469 C 181.945312 154.621094 183.722656 155.117188 185.277344 154.269531 C 185.792969 153.980469 186.1875 153.589844 186.515625 153.132812 C 186.847656 153.589844 187.261719 153.980469 187.757812 154.269531 C 189.308594 155.140625 191.109375 154.621094 192.621094 153.980469 C 193.386719 153.652344 192.722656 152.515625 191.957031 152.84375 Z M 191.980469 152.824219 " fill-opacity="1" fill-rule="nonzero"/><path fill="#000000" d="M 170.6875 147.824219 C 170.6875 148.390625 170.632812 148.953125 170.523438 149.511719 C 170.410156 150.070312 170.246094 150.609375 170.03125 151.136719 C 169.8125 151.660156 169.542969 152.160156 169.226562 152.632812 C 168.914062 153.105469 168.554688 153.542969 168.148438 153.945312 C 167.746094 154.347656 167.308594 154.707031 166.835938 155.023438 C 166.363281 155.339844 165.863281 155.605469 165.339844 155.824219 C 164.8125 156.039062 164.269531 156.203125 163.710938 156.316406 C 163.152344 156.425781 162.589844 156.480469 162.019531 156.480469 C 161.453125 156.480469 160.886719 156.425781 160.328125 156.316406 C 159.769531 156.203125 159.230469 156.039062 158.703125 155.824219 C 158.175781 155.605469 157.675781 155.339844 157.203125 155.023438 C 156.730469 154.707031 156.292969 154.347656 155.890625 153.945312 C 155.488281 153.542969 155.128906 153.105469 154.8125 152.632812 C 154.496094 152.160156 154.230469 151.660156 154.011719 151.136719 C 153.792969 150.609375 153.628906 150.070312 153.519531 149.511719 C 153.40625 148.953125 153.351562 148.390625 153.351562 147.824219 C 153.351562 147.253906 153.40625 146.691406 153.519531 146.132812 C 153.628906 145.574219 153.792969 145.035156 154.011719 144.507812 C 154.230469 143.984375 154.496094 143.484375 154.8125 143.011719 C 155.128906 142.539062 155.488281 142.101562 155.890625 141.699219 C 156.292969 141.296875 156.730469 140.9375 157.203125 140.621094 C 157.675781 140.304688 158.175781 140.039062 158.703125 139.820312 C 159.230469 139.605469 159.769531 139.441406 160.328125 139.328125 C 160.886719 139.21875 161.453125 139.164062 162.019531 139.164062 C 162.589844 139.164062 163.152344 139.21875 163.710938 139.328125 C 164.269531 139.441406 164.8125 139.605469 165.339844 139.820312 C 165.863281 140.039062 166.363281 140.304688 166.835938 140.621094 C 167.308594 140.9375 167.746094 141.296875 168.148438 141.699219 C 168.554688 142.101562 168.914062 142.539062 169.226562 143.011719 C 169.542969 143.484375 169.8125 143.984375 170.03125 144.507812 C 170.246094 145.035156 170.410156 145.574219 170.523438 146.132812 C 170.632812 146.691406 170.6875 147.253906 170.6875 147.824219 Z M 170.6875 147.824219 " fill-opacity="1" fill-rule="nonzero"/><path fill="#000000" d="M 220.550781 147.824219 C 220.550781 148.390625 220.496094 148.953125 220.382812 149.511719 C 220.273438 150.070312 220.109375 150.609375 219.890625 151.136719 C 219.671875 151.660156 219.40625 152.160156 219.089844 152.632812 C 218.773438 153.105469 218.414062 153.542969 218.011719 153.945312 C 217.609375 154.347656 217.171875 154.707031 216.699219 155.023438 C 216.226562 155.339844 215.726562 155.605469 215.199219 155.824219 C 214.671875 156.039062 214.132812 156.203125 213.574219 156.316406 C 213.015625 156.425781 212.453125 156.480469 211.882812 156.480469 C 211.3125 156.480469 210.75 156.425781 210.191406 156.316406 C 209.632812 156.203125 209.089844 156.039062 208.566406 155.824219 C 208.039062 155.605469 207.539062 155.339844 207.066406 155.023438 C 206.59375 154.707031 206.15625 154.347656 205.753906 153.945312 C 205.351562 153.542969 204.992188 153.105469 204.675781 152.632812 C 204.359375 152.160156 204.089844 151.660156 203.871094 151.136719 C 203.65625 150.609375 203.492188 150.070312 203.378906 149.511719 C 203.269531 148.953125 203.214844 148.390625 203.214844 147.824219 C 203.214844 147.253906 203.269531 146.691406 203.378906 146.132812 C 203.492188 145.574219 203.65625 145.035156 203.871094 144.507812 C 204.089844 143.984375 204.359375 143.484375 204.675781 143.011719 C 204.992188 142.539062 205.351562 142.101562 205.753906 141.699219 C 206.15625 141.296875 206.59375 140.9375 207.066406 140.621094 C 207.539062 140.304688 208.039062 140.039062 208.566406 139.820312 C 209.089844 139.605469 209.632812 139.441406 210.191406 139.328125 C 210.75 139.21875 211.3125 139.164062 211.882812 139.164062 C 212.453125 139.164062 213.015625 139.21875 213.574219 139.328125 C 214.132812 139.441406 214.671875 139.605469 215.199219 139.820312 C 215.726562 140.039062 216.226562 140.304688 216.699219 140.621094 C 217.171875 140.9375 217.609375 141.296875 218.011719 141.699219 C 218.414062 142.101562 218.773438 142.539062 219.089844 143.011719 C 219.40625 143.484375 219.671875 143.984375 219.890625 144.507812 C 220.109375 145.035156 220.273438 145.574219 220.382812 146.132812 C 220.496094 146.691406 220.550781 147.253906 220.550781 147.824219 Z M 220.550781 147.824219 " fill-opacity="1" fill-rule="nonzero"/><path fill="#ffabab" d="M 149.460938 157.617188 C 149.109375 158.300781 148.738281 158.960938 148.386719 159.644531 C 148.035156 160.328125 148.28125 160.472656 148.65625 160.65625 C 149.027344 160.84375 149.484375 160.761719 149.667969 160.386719 C 150.019531 159.707031 150.394531 159.046875 150.746094 158.363281 C 151.097656 157.679688 150.847656 157.535156 150.476562 157.351562 C 150.101562 157.164062 149.648438 157.246094 149.460938 157.617188 Z M 149.460938 157.617188 " fill-opacity="1" fill-rule="nonzero"/><path fill="#ffabab" d="M 153.125 157.867188 L 152.335938 159.789062 C 152.277344 159.953125 152.335938 160.222656 152.421875 160.367188 C 152.503906 160.511719 152.691406 160.679688 152.875 160.71875 C 153.0625 160.761719 153.289062 160.761719 153.457031 160.636719 L 153.601562 160.511719 C 153.683594 160.429688 153.765625 160.304688 153.785156 160.183594 L 154.574219 158.257812 C 154.632812 158.09375 154.574219 157.824219 154.488281 157.679688 C 154.40625 157.535156 154.21875 157.371094 154.035156 157.328125 C 153.847656 157.289062 153.621094 157.289062 153.457031 157.414062 L 153.308594 157.535156 C 153.226562 157.617188 153.144531 157.742188 153.125 157.867188 Z M 153.125 157.867188 " fill-opacity="1" fill-rule="nonzero"/><path fill="#ffabab" d="M 156.992188 158.238281 C 156.703125 158.714844 156.433594 159.167969 156.144531 159.644531 C 155.855469 160.121094 156.019531 160.035156 156.0625 160.222656 C 156.101562 160.410156 156.25 160.574219 156.414062 160.679688 C 156.578125 160.78125 156.785156 160.824219 156.992188 160.761719 C 157.199219 160.699219 157.34375 160.59375 157.449219 160.410156 C 157.738281 159.933594 158.007812 159.480469 158.296875 159.003906 C 158.585938 158.527344 158.421875 158.609375 158.378906 158.425781 C 158.335938 158.238281 158.191406 158.074219 158.027344 157.96875 C 157.863281 157.867188 157.65625 157.824219 157.449219 157.886719 C 157.242188 157.949219 157.097656 158.054688 156.992188 158.238281 Z M 156.992188 158.238281 " fill-opacity="1" fill-rule="nonzero"/><path fill="#ffabab" d="M 218.296875 157.082031 C 218.089844 157.433594 217.882812 157.804688 217.675781 158.15625 C 217.570312 158.320312 217.550781 158.550781 217.59375 158.734375 C 217.632812 158.921875 217.777344 159.085938 217.945312 159.191406 C 218.109375 159.292969 218.316406 159.335938 218.523438 159.273438 C 218.730469 159.210938 218.875 159.105469 218.976562 158.921875 C 219.183594 158.570312 219.390625 158.199219 219.597656 157.847656 C 219.703125 157.679688 219.722656 157.453125 219.683594 157.269531 C 219.640625 157.082031 219.496094 156.917969 219.332031 156.8125 C 219.164062 156.710938 218.957031 156.667969 218.75 156.730469 C 218.542969 156.792969 218.398438 156.894531 218.296875 157.082031 Z M 218.296875 157.082031 " fill-opacity="1" fill-rule="nonzero"/><path fill="#ffabab" d="M 222.828125 156.730469 C 222.515625 157.328125 222.183594 157.929688 221.875 158.527344 C 221.792969 158.695312 221.75 158.898438 221.792969 159.105469 C 221.832031 159.3125 221.976562 159.457031 222.144531 159.5625 C 222.496094 159.746094 222.972656 159.664062 223.15625 159.292969 C 223.46875 158.695312 223.800781 158.09375 224.109375 157.496094 C 224.191406 157.328125 224.234375 157.121094 224.191406 156.917969 C 224.152344 156.710938 224.007812 156.566406 223.839844 156.460938 C 223.488281 156.277344 223.011719 156.359375 222.828125 156.730469 Z M 222.828125 156.730469 " fill-opacity="1" fill-rule="nonzero"/><path fill="#ffabab" d="M 227.648438 156.730469 C 227.171875 157.371094 226.695312 158.011719 226.242188 158.652344 C 225.785156 159.292969 226.117188 159.066406 226.15625 159.230469 C 226.199219 159.394531 226.34375 159.582031 226.507812 159.6875 C 226.675781 159.789062 226.882812 159.832031 227.089844 159.769531 L 227.273438 159.6875 C 227.378906 159.625 227.480469 159.519531 227.542969 159.417969 C 228.019531 158.777344 228.496094 158.136719 228.949219 157.496094 C 229.054688 157.351562 229.074219 157.082031 229.035156 156.917969 C 228.992188 156.75 228.847656 156.566406 228.683594 156.460938 C 228.515625 156.359375 228.308594 156.316406 228.101562 156.378906 L 227.917969 156.460938 C 227.8125 156.523438 227.710938 156.625 227.648438 156.730469 Z M 227.648438 156.730469 " fill-opacity="1" fill-rule="nonzero"/><path fill="#000000" d="M 237.328125 149.703125 C 244.15625 149 250.964844 148.296875 257.792969 147.59375 C 259.199219 147.449219 259.21875 145.21875 257.792969 145.363281 C 250.964844 146.066406 244.15625 146.769531 237.328125 147.472656 C 235.921875 147.617188 235.902344 149.847656 237.328125 149.703125 Z M 237.328125 149.703125 " fill-opacity="1" fill-rule="nonzero"/><path fill="#000000" d="M 239.359375 156.976562 C 245.441406 156.792969 251.503906 157.121094 257.503906 158.03125 C 258.910156 158.238281 259.507812 156.089844 258.101562 155.882812 C 251.894531 154.953125 245.648438 154.539062 239.359375 154.746094 C 237.929688 154.789062 237.910156 157.019531 239.359375 156.976562 Z M 239.359375 156.976562 " fill-opacity="1" fill-rule="nonzero"/><path fill="#000000" d="M 135.0625 149.703125 C 128.234375 149 121.429688 148.296875 114.601562 147.59375 C 113.195312 147.449219 113.171875 145.21875 114.601562 145.363281 C 121.429688 146.066406 128.234375 146.769531 135.0625 147.472656 C 136.46875 147.617188 136.488281 149.847656 135.0625 149.703125 Z M 135.0625 149.703125 " fill-opacity="1" fill-rule="nonzero"/><path fill="#000000" d="M 133.035156 156.976562 C 126.953125 156.792969 120.890625 157.121094 114.890625 158.03125 C 113.484375 158.238281 112.882812 156.089844 114.289062 155.882812 C 120.496094 154.953125 126.746094 154.539062 133.035156 154.746094 C 134.460938 154.789062 134.484375 157.019531 133.035156 156.976562 Z M 133.035156 156.976562 " fill-opacity="1" fill-rule="nonzero"/><g fill="#000000" fill-opacity="1"><g transform="translate(71.59847, 98.823735)"><g><path d="M 12.140625 -15.265625 C 12.273438 -15.367188 12.4375 -15.410156 12.625 -15.390625 L 14.40625 -15.09375 C 14.320312 -13.65625 13.9375 -12.289062 13.25 -11 C 12.5625 -9.707031 11.46875 -8.484375 9.96875 -7.328125 C 8.675781 -6.335938 7.320312 -5.660156 5.90625 -5.296875 C 4.5 -4.929688 3.109375 -4.867188 1.734375 -5.109375 C 0.359375 -5.347656 -0.96875 -5.875 -2.25 -6.6875 C -3.53125 -7.507812 -4.695312 -8.601562 -5.75 -9.96875 C -6.789062 -11.332031 -7.535156 -12.742188 -7.984375 -14.203125 C -8.429688 -15.671875 -8.578125 -17.113281 -8.421875 -18.53125 C -8.273438 -19.945312 -7.832031 -21.296875 -7.09375 -22.578125 C -6.351562 -23.859375 -5.320312 -25.007812 -4 -26.03125 C -2.707031 -27.019531 -1.410156 -27.6875 -0.109375 -28.03125 C 1.179688 -28.375 2.476562 -28.484375 3.78125 -28.359375 L 3.828125 -26.609375 C 3.828125 -26.472656 3.804688 -26.347656 3.765625 -26.234375 C 3.734375 -26.128906 3.65625 -26.023438 3.53125 -25.921875 C 3.375 -25.796875 3.125 -25.726562 2.78125 -25.71875 C 2.445312 -25.71875 2.023438 -25.679688 1.515625 -25.609375 C 1.003906 -25.546875 0.421875 -25.394531 -0.234375 -25.15625 C -0.898438 -24.914062 -1.617188 -24.5 -2.390625 -23.90625 C -3.328125 -23.1875 -4.054688 -22.363281 -4.578125 -21.4375 C -5.097656 -20.519531 -5.398438 -19.539062 -5.484375 -18.5 C -5.578125 -17.457031 -5.441406 -16.375 -5.078125 -15.25 C -4.710938 -14.125 -4.101562 -13.003906 -3.25 -11.890625 C -2.375 -10.753906 -1.4375 -9.867188 -0.4375 -9.234375 C 0.5625 -8.609375 1.578125 -8.203125 2.609375 -8.015625 C 3.640625 -7.835938 4.65625 -7.878906 5.65625 -8.140625 C 6.664062 -8.410156 7.613281 -8.882812 8.5 -9.5625 C 9.039062 -9.976562 9.503906 -10.382812 9.890625 -10.78125 C 10.273438 -11.175781 10.597656 -11.582031 10.859375 -12 C 11.117188 -12.414062 11.328125 -12.847656 11.484375 -13.296875 C 11.640625 -13.742188 11.769531 -14.234375 11.875 -14.765625 C 11.914062 -14.992188 12.003906 -15.160156 12.140625 -15.265625 Z M 12.140625 -15.265625 "/></g></g></g><g fill="#000000" fill-opacity="1"><g transform="translate(99.365929, 79.093047)"><g><path d="M 2.953125 -14.65625 C 3.753906 -15.0625 4.410156 -15.515625 4.921875 -16.015625 C 5.429688 -16.523438 5.800781 -17.0625 6.03125 -17.625 C 6.269531 -18.195312 6.367188 -18.78125 6.328125 -19.375 C 6.285156 -19.96875 6.113281 -20.566406 5.8125 -21.171875 C 5.207031 -22.378906 4.351562 -23.085938 3.25 -23.296875 C 2.144531 -23.515625 0.789062 -23.21875 -0.8125 -22.40625 L -3.828125 -20.890625 L 0.046875 -13.1875 Z M 17.671875 -8.90625 L 15.21875 -7.671875 C 14.71875 -7.421875 14.25 -7.429688 13.8125 -7.703125 L 4.84375 -12.3125 C 4.570312 -12.457031 4.320312 -12.535156 4.09375 -12.546875 C 3.863281 -12.554688 3.550781 -12.460938 3.15625 -12.265625 L 1.0625 -11.203125 L 5.34375 -2.6875 L 2.609375 -1.3125 L -7.65625 -21.703125 L -1.90625 -24.59375 C -0.613281 -25.25 0.5625 -25.679688 1.625 -25.890625 C 2.695312 -26.109375 3.660156 -26.125 4.515625 -25.9375 C 5.378906 -25.75 6.132812 -25.378906 6.78125 -24.828125 C 7.4375 -24.285156 7.984375 -23.582031 8.421875 -22.71875 C 8.785156 -22 9.007812 -21.269531 9.09375 -20.53125 C 9.175781 -19.789062 9.125 -19.0625 8.9375 -18.34375 C 8.757812 -17.625 8.445312 -16.929688 8 -16.265625 C 7.550781 -15.597656 6.984375 -14.976562 6.296875 -14.40625 C 6.753906 -14.394531 7.203125 -14.257812 7.640625 -14 Z M 17.671875 -8.90625 "/></g></g></g><g fill="#000000" fill-opacity="1"><g transform="translate(129.162685, 65.413092)"><g><path d="M 8.5 -11.921875 L 11.03125 -3.1875 L 8.0625 -2.328125 L 5.53125 -11.0625 L -6.3125 -21.9375 L -3.71875 -22.6875 C -3.445312 -22.757812 -3.21875 -22.753906 -3.03125 -22.671875 C -2.84375 -22.585938 -2.664062 -22.460938 -2.5 -22.296875 L 4.984375 -15.234375 C 5.265625 -14.929688 5.53125 -14.640625 5.78125 -14.359375 C 6.03125 -14.085938 6.253906 -13.820312 6.453125 -13.5625 C 6.472656 -13.894531 6.507812 -14.238281 6.5625 -14.59375 C 6.613281 -14.957031 6.675781 -15.335938 6.75 -15.734375 L 9.28125 -25.703125 C 9.332031 -25.898438 9.414062 -26.09375 9.53125 -26.28125 C 9.65625 -26.476562 9.847656 -26.613281 10.109375 -26.6875 L 12.71875 -27.4375 Z M 8.5 -11.921875 "/></g></g></g><g fill="#000000" fill-opacity="1"><g transform="translate(160.704234, 57.302939)"><g><path d="M 22.984375 -13.359375 C 23.117188 -11.648438 22.972656 -10.0625 22.546875 -8.59375 C 22.128906 -7.125 21.472656 -5.835938 20.578125 -4.734375 C 19.679688 -3.628906 18.566406 -2.734375 17.234375 -2.046875 C 15.898438 -1.367188 14.394531 -0.957031 12.71875 -0.8125 C 11.050781 -0.675781 9.503906 -0.832031 8.078125 -1.28125 C 6.648438 -1.738281 5.398438 -2.4375 4.328125 -3.375 C 3.265625 -4.320312 2.40625 -5.484375 1.75 -6.859375 C 1.09375 -8.242188 0.695312 -9.789062 0.5625 -11.5 C 0.414062 -13.195312 0.550781 -14.773438 0.96875 -16.234375 C 1.394531 -17.703125 2.054688 -18.992188 2.953125 -20.109375 C 3.847656 -21.222656 4.960938 -22.125 6.296875 -22.8125 C 7.628906 -23.5 9.128906 -23.910156 10.796875 -24.046875 C 12.472656 -24.191406 14.023438 -24.035156 15.453125 -23.578125 C 16.878906 -23.117188 18.125 -22.410156 19.1875 -21.453125 C 20.257812 -20.503906 21.125 -19.34375 21.78125 -17.96875 C 22.4375 -16.59375 22.835938 -15.054688 22.984375 -13.359375 Z M 19.828125 -13.09375 C 19.710938 -14.488281 19.414062 -15.722656 18.9375 -16.796875 C 18.46875 -17.878906 17.851562 -18.773438 17.09375 -19.484375 C 16.332031 -20.191406 15.4375 -20.710938 14.40625 -21.046875 C 13.375 -21.378906 12.242188 -21.492188 11.015625 -21.390625 C 9.796875 -21.296875 8.707031 -21 7.75 -20.5 C 6.789062 -20 5.988281 -19.335938 5.34375 -18.515625 C 4.707031 -17.691406 4.242188 -16.707031 3.953125 -15.5625 C 3.671875 -14.425781 3.585938 -13.160156 3.703125 -11.765625 C 3.816406 -10.359375 4.109375 -9.117188 4.578125 -8.046875 C 5.046875 -6.972656 5.664062 -6.078125 6.4375 -5.359375 C 7.207031 -4.648438 8.101562 -4.132812 9.125 -3.8125 C 10.15625 -3.488281 11.28125 -3.375 12.5 -3.46875 C 13.726562 -3.570312 14.820312 -3.867188 15.78125 -4.359375 C 16.75 -4.847656 17.546875 -5.503906 18.171875 -6.328125 C 18.804688 -7.160156 19.269531 -8.144531 19.5625 -9.28125 C 19.851562 -10.414062 19.941406 -11.6875 19.828125 -13.09375 Z M 19.828125 -13.09375 "/></g></g></g><g fill="#000000" fill-opacity="1"><g transform="translate(198.892125, 55.768845)"><g><path d="M 16.609375 -17.5625 C 16.492188 -17.40625 16.378906 -17.289062 16.265625 -17.21875 C 16.148438 -17.15625 16.015625 -17.132812 15.859375 -17.15625 C 15.679688 -17.164062 15.476562 -17.273438 15.25 -17.484375 C 15.03125 -17.703125 14.742188 -17.929688 14.390625 -18.171875 C 14.046875 -18.421875 13.628906 -18.664062 13.140625 -18.90625 C 12.660156 -19.144531 12.050781 -19.304688 11.3125 -19.390625 C 10.632812 -19.460938 10.019531 -19.429688 9.46875 -19.296875 C 8.925781 -19.171875 8.460938 -18.972656 8.078125 -18.703125 C 7.691406 -18.429688 7.382812 -18.09375 7.15625 -17.6875 C 6.925781 -17.28125 6.785156 -16.828125 6.734375 -16.328125 C 6.660156 -15.703125 6.757812 -15.160156 7.03125 -14.703125 C 7.300781 -14.242188 7.671875 -13.835938 8.140625 -13.484375 C 8.617188 -13.140625 9.171875 -12.820312 9.796875 -12.53125 C 10.421875 -12.238281 11.0625 -11.9375 11.71875 -11.625 C 12.382812 -11.320312 13.023438 -10.988281 13.640625 -10.625 C 14.253906 -10.269531 14.789062 -9.84375 15.25 -9.34375 C 15.707031 -8.84375 16.054688 -8.253906 16.296875 -7.578125 C 16.546875 -6.898438 16.617188 -6.085938 16.515625 -5.140625 C 16.398438 -4.160156 16.125 -3.25 15.6875 -2.40625 C 15.257812 -1.570312 14.6875 -0.867188 13.96875 -0.296875 C 13.25 0.265625 12.394531 0.675781 11.40625 0.9375 C 10.414062 1.207031 9.320312 1.28125 8.125 1.15625 C 6.644531 0.988281 5.332031 0.570312 4.1875 -0.09375 C 3.050781 -0.757812 2.101562 -1.59375 1.34375 -2.59375 L 2.375 -3.9375 C 2.488281 -4.039062 2.609375 -4.128906 2.734375 -4.203125 C 2.859375 -4.273438 2.992188 -4.300781 3.140625 -4.28125 C 3.285156 -4.269531 3.4375 -4.195312 3.59375 -4.0625 C 3.757812 -3.925781 3.941406 -3.765625 4.140625 -3.578125 C 4.335938 -3.390625 4.566406 -3.175781 4.828125 -2.9375 C 5.097656 -2.707031 5.40625 -2.488281 5.75 -2.28125 C 6.101562 -2.070312 6.503906 -1.882812 6.953125 -1.71875 C 7.398438 -1.5625 7.914062 -1.453125 8.5 -1.390625 C 9.226562 -1.304688 9.890625 -1.332031 10.484375 -1.46875 C 11.085938 -1.613281 11.601562 -1.84375 12.03125 -2.15625 C 12.457031 -2.476562 12.804688 -2.878906 13.078125 -3.359375 C 13.347656 -3.847656 13.519531 -4.398438 13.59375 -5.015625 C 13.664062 -5.703125 13.566406 -6.285156 13.296875 -6.765625 C 13.035156 -7.242188 12.664062 -7.65625 12.1875 -8 C 11.71875 -8.34375 11.164062 -8.65625 10.53125 -8.9375 C 9.90625 -9.21875 9.265625 -9.503906 8.609375 -9.796875 C 7.953125 -10.085938 7.3125 -10.410156 6.6875 -10.765625 C 6.0625 -11.128906 5.523438 -11.5625 5.078125 -12.0625 C 4.628906 -12.570312 4.28125 -13.1875 4.03125 -13.90625 C 3.789062 -14.625 3.726562 -15.484375 3.84375 -16.484375 C 3.925781 -17.285156 4.164062 -18.039062 4.5625 -18.75 C 4.96875 -19.46875 5.5 -20.082031 6.15625 -20.59375 C 6.820312 -21.113281 7.609375 -21.5 8.515625 -21.75 C 9.421875 -22 10.4375 -22.0625 11.5625 -21.9375 C 12.832031 -21.800781 13.96875 -21.476562 14.96875 -20.96875 C 15.96875 -20.457031 16.816406 -19.769531 17.515625 -18.90625 Z M 16.609375 -17.5625 "/></g></g></g><g fill="#000000" fill-opacity="1"><g transform="translate(229.03987, 60.395371)"><g><path d="M 5.796875 1.53125 L 2.828125 0.75 L 8.65625 -21.3125 L 11.625 -20.53125 Z M 5.796875 1.53125 "/></g></g></g><g fill="#000000" fill-opacity="1"><g transform="translate(250.213707, 66.558295)"><g><path d="M 17.171875 -1.625 L 17.6875 -11.578125 C 17.707031 -11.867188 17.734375 -12.207031 17.765625 -12.59375 C 17.804688 -12.988281 17.859375 -13.390625 17.921875 -13.796875 C 17.378906 -13.097656 16.882812 -12.539062 16.4375 -12.125 L 9.390625 -5.09375 Z M 19.609375 8.71875 L 17.4375 7.75 C 17.1875 7.644531 17.007812 7.488281 16.90625 7.28125 C 16.8125 7.082031 16.765625 6.875 16.765625 6.65625 L 17.0625 0.75 L 7.71875 -3.40625 L 3.515625 0.75 C 3.378906 0.90625 3.195312 1.015625 2.96875 1.078125 C 2.75 1.140625 2.515625 1.117188 2.265625 1.015625 L 0.078125 0.03125 L 17.703125 -17.109375 L 20.5625 -15.84375 Z M 19.609375 8.71875 "/></g></g></g><g fill="#000000" fill-opacity="1"><g transform="translate(280.9939, 81.250303)"><g><path d="M 35 -2.625 L 21.5 15.78125 L 19.3125 14.171875 L 29.234375 0.640625 C 29.367188 0.460938 29.515625 0.273438 29.671875 0.078125 C 29.835938 -0.109375 30.007812 -0.300781 30.1875 -0.5 L 15.421875 6.375 C 14.941406 6.601562 14.5 6.570312 14.09375 6.28125 L 13.734375 6.015625 C 13.335938 5.722656 13.179688 5.3125 13.265625 4.78125 L 15.296875 -11.515625 C 15.015625 -11.015625 14.734375 -10.578125 14.453125 -10.203125 L 4.53125 3.328125 L 2.359375 1.734375 L 15.859375 -16.671875 L 17.6875 -15.34375 C 17.90625 -15.175781 18.054688 -15.023438 18.140625 -14.890625 C 18.234375 -14.765625 18.265625 -14.554688 18.234375 -14.265625 L 16.28125 1.703125 C 16.238281 1.992188 16.1875 2.285156 16.125 2.578125 C 16.0625 2.867188 15.984375 3.164062 15.890625 3.46875 C 16.148438 3.289062 16.410156 3.125 16.671875 2.96875 C 16.929688 2.8125 17.191406 2.675781 17.453125 2.5625 L 32 -4.171875 C 32.238281 -4.304688 32.4375 -4.347656 32.59375 -4.296875 C 32.75 -4.242188 32.9375 -4.132812 33.15625 -3.96875 Z M 35 -2.625 "/></g></g></g></svg>