<svg xmlns="http://www.w3.org/2000/svg" xmlns:xlink="http://www.w3.org/1999/xlink" width="500" zoomAndPan="magnify" viewBox="0 0 375 374.999991" height="500" preserveAspectRatio="xMidYMid meet" version="1.0"><defs><clipPath id="6c30c31d29"><path d="M 187.5 0 C 83.945312 0 0 83.945312 0 187.5 C 0 291.054688 83.945312 375 187.5 375 C 291.054688 375 375 291.054688 375 187.5 C 375 83.945312 291.054688 0 187.5 0 Z M 187.5 0 " clip-rule="nonzero"/></clipPath><clipPath id="4d90098e09"><path d="M 133.222656 197 L 144 197 L 144 208 L 133.222656 208 Z M 133.222656 197 " clip-rule="nonzero"/></clipPath><clipPath id="e918650854"><path d="M 180 187.5 L 191 187.5 L 191 198 L 180 198 Z M 180 187.5 " clip-rule="nonzero"/></clipPath><clipPath id="be60d39ce0"><path d="M 200 266 L 211 266 L 211 276.75 L 200 276.75 Z M 200 266 " clip-rule="nonzero"/></clipPath><clipPath id="8c6adc46b3"><path d="M 231 233 L 241.972656 233 L 241.972656 244 L 231 244 Z M 231 233 " clip-rule="nonzero"/></clipPath><clipPath id="bb6b2c8edc"><path d="M 133.222656 197 L 144 197 L 144 208 L 133.222656 208 Z M 133.222656 197 " clip-rule="nonzero"/></clipPath><clipPath id="262d76f3b5"><path d="M 180 187.5 L 191 187.5 L 191 198 L 180 198 Z M 180 187.5 " clip-rule="nonzero"/></clipPath><clipPath id="c182a76049"><path d="M 200 266 L 211 266 L 211 276.75 L 200 276.75 Z M 200 266 " clip-rule="nonzero"/></clipPath><clipPath id="8caffef621"><path d="M 231 233 L 241.972656 233 L 241.972656 244 L 231 244 Z M 231 233 " clip-rule="nonzero"/></clipPath><clipPath id="a5717cb66b"><path d="M 66.878906 93.332031 L 309.878906 93.332031 L 309.878906 345.332031 L 66.878906 345.332031 Z M 66.878906 93.332031 " clip-rule="nonzero"/></clipPath><clipPath id="ba69f66b20"><path d="M 71.511719 148 L 301.761719 148 L 301.761719 154 L 71.511719 154 Z M 71.511719 148 " clip-rule="nonzero"/></clipPath><clipPath id="078dcf1cdc"><path d="M 237 133 L 284 133 L 284 159.941406 L 237 159.941406 Z M 237 133 " clip-rule="nonzero"/></clipPath><clipPath id="3f4813af5f"><path d="M 93 133 L 141 133 L 141 159.941406 L 93 159.941406 Z M 93 133 " clip-rule="nonzero"/></clipPath></defs><g clip-path="url(#6c30c31d29)"><rect x="-37.5" width="450" fill="#ffffff" y="-37.499999" height="449.999989" fill-opacity="1"/></g><path fill="#0077b6" d="M 263.902344 196.828125 C 282.191406 235.121094 264.367188 286.421875 221.714844 306.789062 C 179.0625 327.160156 129.660156 312.632812 111.375 274.339844 C 93.085938 236.050781 112.839844 188.496094 155.492188 168.125 C 198.144531 147.753906 245.617188 158.539062 263.902344 196.828125 Z M 263.902344 196.828125 " fill-opacity="1" fill-rule="nonzero"/><path fill="#cce1f6" d="M 253.820312 198.523438 C 266.640625 221.855469 262.238281 236.972656 243.191406 257.867188 C 239.050781 262.410156 227.136719 270.5 223.054688 274.773438 C 217.132812 280.96875 212.28125 290.65625 205.800781 294.214844 C 169.042969 314.410156 138.980469 304.886719 120.722656 271.660156 C 102.464844 238.429688 117.457031 195.121094 154.214844 174.925781 C 190.96875 154.730469 235.5625 165.296875 253.820312 198.523438 Z M 253.820312 198.523438 " fill-opacity="1" fill-rule="nonzero"/><g clip-path="url(#4d90098e09)"><path fill="#c1121f" d="M 138.6875 197.769531 C 141.898438 197.828125 143.742188 199.574219 143.710938 202.53125 C 143.675781 205.863281 141.507812 208 138.210938 207.953125 C 135.863281 207.921875 133.25 205.300781 133.496094 202.859375 C 133.839844 199.453125 135.140625 197.71875 138.6875 197.769531 Z M 138.6875 197.769531 " fill-opacity="1" fill-rule="nonzero"/></g><path fill="#c1121f" d="M 141.4375 246.605469 C 144.652344 246.667969 146.492188 248.414062 146.460938 251.367188 C 146.425781 254.699219 144.257812 256.839844 140.960938 256.792969 C 138.613281 256.757812 136.003906 254.136719 136.25 251.699219 C 136.59375 248.289062 137.890625 246.558594 141.4375 246.605469 Z M 141.4375 246.605469 " fill-opacity="1" fill-rule="nonzero"/><g clip-path="url(#e918650854)"><path fill="#c1121f" d="M 185.953125 187.550781 C 189.164062 187.609375 191.007812 189.355469 190.976562 192.3125 C 190.941406 195.644531 188.769531 197.78125 185.472656 197.734375 C 183.128906 197.703125 180.515625 195.082031 180.761719 192.640625 C 181.105469 189.234375 182.40625 187.5 185.953125 187.550781 Z M 185.953125 187.550781 " fill-opacity="1" fill-rule="nonzero"/></g><path fill="#c1121f" d="M 163.84375 215.75 C 167.054688 215.8125 168.898438 217.558594 168.867188 220.511719 C 168.832031 223.847656 166.660156 225.984375 163.363281 225.9375 C 161.019531 225.902344 158.40625 223.285156 158.652344 220.84375 C 158.996094 217.4375 160.296875 215.703125 163.84375 215.75 Z M 163.84375 215.75 " fill-opacity="1" fill-rule="nonzero"/><path fill="#c1121f" d="M 219.363281 205.53125 C 222.574219 205.59375 224.417969 207.339844 224.386719 210.292969 C 224.351562 213.625 222.179688 215.765625 218.882812 215.71875 C 216.539062 215.683594 213.925781 213.0625 214.171875 210.625 C 214.515625 207.214844 215.8125 205.484375 219.363281 205.53125 Z M 219.363281 205.53125 " fill-opacity="1" fill-rule="nonzero"/><path fill="#c1121f" d="M 198.921875 230.394531 C 202.136719 230.453125 203.976562 232.199219 203.945312 235.15625 C 203.910156 238.488281 201.742188 240.625 198.445312 240.578125 C 196.097656 240.542969 193.488281 237.925781 193.730469 235.484375 C 194.078125 232.078125 195.375 230.34375 198.921875 230.394531 Z M 198.921875 230.394531 " fill-opacity="1" fill-rule="nonzero"/><path fill="#c1121f" d="M 170.132812 238.84375 C 173.34375 238.902344 175.1875 240.652344 175.15625 243.605469 C 175.121094 246.9375 172.949219 249.074219 169.652344 249.027344 C 167.308594 248.996094 164.695312 246.375 164.941406 243.933594 C 165.285156 240.527344 166.585938 238.792969 170.132812 238.84375 Z M 170.132812 238.84375 " fill-opacity="1" fill-rule="nonzero"/><g clip-path="url(#be60d39ce0)"><path fill="#c1121f" d="M 205.898438 266.359375 C 209.113281 266.417969 210.953125 268.164062 210.921875 271.121094 C 210.886719 274.453125 208.71875 276.589844 205.421875 276.542969 C 203.074219 276.507812 200.464844 273.890625 200.710938 271.449219 C 201.054688 268.042969 202.351562 266.308594 205.898438 266.359375 Z M 205.898438 266.359375 " fill-opacity="1" fill-rule="nonzero"/></g><g clip-path="url(#8c6adc46b3)"><path fill="#c1121f" d="M 236.949219 233.734375 C 240.164062 233.792969 242.007812 235.539062 241.976562 238.496094 C 241.941406 241.828125 239.769531 243.964844 236.472656 243.917969 C 234.125 243.886719 231.515625 241.265625 231.761719 238.824219 C 232.105469 235.417969 233.402344 233.683594 236.949219 233.734375 Z M 236.949219 233.734375 " fill-opacity="1" fill-rule="nonzero"/></g><g clip-path="url(#bb6b2c8edc)"><path fill="#c1121f" d="M 138.6875 197.769531 C 141.898438 197.828125 143.742188 199.574219 143.710938 202.53125 C 143.675781 205.863281 141.507812 208 138.210938 207.953125 C 135.863281 207.921875 133.25 205.300781 133.496094 202.859375 C 133.839844 199.453125 135.140625 197.71875 138.6875 197.769531 Z M 138.6875 197.769531 " fill-opacity="1" fill-rule="nonzero"/></g><path fill="#c1121f" d="M 141.4375 246.605469 C 144.652344 246.667969 146.492188 248.414062 146.460938 251.367188 C 146.425781 254.699219 144.257812 256.839844 140.960938 256.792969 C 138.613281 256.757812 136.003906 254.136719 136.25 251.699219 C 136.59375 248.289062 137.890625 246.558594 141.4375 246.605469 Z M 141.4375 246.605469 " fill-opacity="1" fill-rule="nonzero"/><g clip-path="url(#262d76f3b5)"><path fill="#c1121f" d="M 185.953125 187.550781 C 189.164062 187.609375 191.007812 189.355469 190.976562 192.3125 C 190.941406 195.644531 188.769531 197.78125 185.472656 197.734375 C 183.128906 197.703125 180.515625 195.082031 180.761719 192.640625 C 181.105469 189.234375 182.40625 187.5 185.953125 187.550781 Z M 185.953125 187.550781 " fill-opacity="1" fill-rule="nonzero"/></g><path fill="#c1121f" d="M 163.84375 215.75 C 167.054688 215.8125 168.898438 217.558594 168.867188 220.511719 C 168.832031 223.847656 166.660156 225.984375 163.363281 225.9375 C 161.019531 225.902344 158.40625 223.285156 158.652344 220.84375 C 158.996094 217.4375 160.296875 215.703125 163.84375 215.75 Z M 163.84375 215.75 " fill-opacity="1" fill-rule="nonzero"/><path fill="#c1121f" d="M 219.363281 205.53125 C 222.574219 205.59375 224.417969 207.339844 224.386719 210.292969 C 224.351562 213.625 222.179688 215.765625 218.882812 215.71875 C 216.539062 215.683594 213.925781 213.0625 214.171875 210.625 C 214.515625 207.214844 215.8125 205.484375 219.363281 205.53125 Z M 219.363281 205.53125 " fill-opacity="1" fill-rule="nonzero"/><path fill="#c1121f" d="M 198.921875 230.394531 C 202.136719 230.453125 203.976562 232.199219 203.945312 235.15625 C 203.910156 238.488281 201.742188 240.625 198.445312 240.578125 C 196.097656 240.542969 193.488281 237.925781 193.730469 235.484375 C 194.078125 232.078125 195.375 230.34375 198.921875 230.394531 Z M 198.921875 230.394531 " fill-opacity="1" fill-rule="nonzero"/><path fill="#c1121f" d="M 170.132812 238.84375 C 173.34375 238.902344 175.1875 240.652344 175.15625 243.605469 C 175.121094 246.9375 172.949219 249.074219 169.652344 249.027344 C 167.308594 248.996094 164.695312 246.375 164.941406 243.933594 C 165.285156 240.527344 166.585938 238.792969 170.132812 238.84375 Z M 170.132812 238.84375 " fill-opacity="1" fill-rule="nonzero"/><g clip-path="url(#c182a76049)"><path fill="#c1121f" d="M 205.898438 266.359375 C 209.113281 266.417969 210.953125 268.164062 210.921875 271.121094 C 210.886719 274.453125 208.71875 276.589844 205.421875 276.542969 C 203.074219 276.507812 200.464844 273.890625 200.710938 271.449219 C 201.054688 268.042969 202.351562 266.308594 205.898438 266.359375 Z M 205.898438 266.359375 " fill-opacity="1" fill-rule="nonzero"/></g><g clip-path="url(#8caffef621)"><path fill="#c1121f" d="M 236.949219 233.734375 C 240.164062 233.792969 242.007812 235.539062 241.976562 238.496094 C 241.941406 241.828125 239.769531 243.964844 236.472656 243.917969 C 234.125 243.886719 231.515625 241.265625 231.761719 238.824219 C 232.105469 235.417969 233.402344 233.683594 236.949219 233.734375 Z M 236.949219 233.734375 " fill-opacity="1" fill-rule="nonzero"/></g><path fill="#00b4d8" d="M 139.03125 220.371094 C 142.707031 220.371094 145.691406 223.355469 145.691406 227.035156 C 145.691406 230.710938 142.707031 232.097656 139.03125 232.097656 C 135.351562 232.097656 132.367188 230.710938 132.367188 227.035156 C 132.367188 223.355469 135.351562 220.371094 139.03125 220.371094 Z M 139.03125 220.371094 " fill-opacity="1" fill-rule="nonzero"/><path fill="#00b4d8" d="M 182.007812 199.167969 C 185.863281 201.128906 187.394531 205.851562 185.433594 209.703125 C 183.46875 213.554688 179.601562 213.414062 175.75 211.453125 C 171.894531 209.488281 169.507812 206.441406 171.472656 202.589844 C 173.433594 198.738281 178.15625 197.203125 182.007812 199.167969 Z M 182.007812 199.167969 " fill-opacity="1" fill-rule="nonzero"/><path fill="#00b4d8" d="M 161.183594 257 C 165.457031 256.324219 169.472656 259.242188 170.148438 263.515625 C 170.824219 267.785156 167.613281 269.945312 163.339844 270.621094 C 159.070312 271.296875 155.347656 270.234375 154.671875 265.964844 C 153.996094 261.691406 156.914062 257.675781 161.183594 257 Z M 161.183594 257 " fill-opacity="1" fill-rule="nonzero"/><path fill="#00b4d8" d="M 215.695312 190.570312 C 219.0625 192.285156 220.402344 196.410156 218.6875 199.773438 C 216.972656 203.140625 213.59375 203.015625 210.230469 201.300781 C 206.863281 199.585938 204.777344 196.925781 206.492188 193.5625 C 208.207031 190.195312 212.332031 188.855469 215.695312 190.570312 Z M 215.695312 190.570312 " fill-opacity="1" fill-rule="nonzero"/><path fill="#00b4d8" d="M 184.539062 232.1875 C 187.652344 231.054688 191.101562 232.664062 192.234375 235.777344 C 193.367188 238.894531 191.265625 240.988281 188.152344 242.121094 C 185.035156 243.253906 182.082031 243 180.949219 239.886719 C 179.8125 236.769531 181.421875 233.324219 184.539062 232.1875 Z M 184.539062 232.1875 " fill-opacity="1" fill-rule="nonzero"/><path fill="#00b4d8" d="M 236.574219 216.199219 C 239.847656 217.867188 241.152344 221.878906 239.484375 225.152344 C 237.816406 228.425781 234.53125 228.304688 231.257812 226.636719 C 227.980469 224.96875 225.953125 222.382812 227.621094 219.105469 C 229.289062 215.832031 233.300781 214.53125 236.574219 216.199219 Z M 236.574219 216.199219 " fill-opacity="1" fill-rule="nonzero"/><path fill="#00b4d8" d="M 227.480469 249.792969 C 231.332031 251.757812 231.171875 255.125 229.210938 258.976562 C 227.246094 262.828125 225.074219 264.042969 221.21875 262.078125 C 217.367188 260.117188 214.980469 257.070312 216.941406 253.21875 C 218.90625 249.363281 223.625 247.832031 227.480469 249.792969 Z M 227.480469 249.792969 " fill-opacity="1" fill-rule="nonzero"/><g clip-path="url(#a5717cb66b)"><path fill="#000000" d="M 307.484375 146.675781 L 190.03125 93.960938 C 189.503906 93.726562 188.953125 93.605469 188.378906 93.605469 C 187.800781 93.605469 187.25 93.726562 186.722656 93.960938 L 69.273438 146.675781 C 68.914062 146.835938 68.589844 147.042969 68.292969 147.296875 C 67.996094 147.550781 67.742188 147.84375 67.527344 148.171875 C 67.316406 148.5 67.152344 148.851562 67.042969 149.226562 C 66.933594 149.601562 66.878906 149.984375 66.878906 150.375 L 66.878906 288.242188 C 66.878906 288.632812 66.933594 289.015625 67.042969 289.390625 C 67.152344 289.765625 67.316406 290.117188 67.527344 290.445312 C 67.742188 290.773438 67.996094 291.066406 68.292969 291.320312 C 68.589844 291.574219 68.914062 291.78125 69.273438 291.941406 L 186.722656 344.65625 C 187.25 344.894531 187.800781 345.011719 188.378906 345.011719 C 188.953125 345.011719 189.507812 344.894531 190.03125 344.65625 L 307.484375 291.941406 C 307.839844 291.78125 308.164062 291.574219 308.460938 291.320312 C 308.757812 291.066406 309.011719 290.773438 309.226562 290.445312 C 309.4375 290.117188 309.601562 289.765625 309.710938 289.390625 C 309.820312 289.015625 309.875 288.632812 309.878906 288.242188 L 309.878906 150.375 C 309.875 149.984375 309.820312 149.601562 309.710938 149.226562 C 309.601562 148.851562 309.4375 148.5 309.226562 148.171875 C 309.011719 147.84375 308.757812 147.550781 308.460938 147.296875 C 308.164062 147.042969 307.839844 146.835938 307.484375 146.675781 Z M 184.328125 334.695312 L 74.976562 285.617188 L 74.976562 156.914062 L 184.328125 205.992188 Z M 188.378906 198.921875 L 80.515625 150.511719 L 188.378906 102.105469 L 296.238281 150.511719 Z M 301.777344 285.617188 L 192.425781 334.695312 L 192.425781 205.992188 L 301.777344 156.914062 Z M 301.777344 285.617188 " fill-opacity="1" fill-rule="nonzero"/></g><path stroke-linecap="butt" transform="matrix(0.75, 0, 0, 0.75, 72.507115, 147.928145)" fill="none" stroke-linejoin="miter" d="M 0.000930082 3.002057 L 307.006159 3.002057 " stroke="#000000" stroke-width="6" stroke-opacity="1" stroke-miterlimit="4"/><path fill="#e8e0da" d="M 255.144531 120.628906 C 254.039062 141.433594 243.960938 150.15625 243.960938 150.15625 L 129.316406 150.15625 C 129.316406 150.15625 116.773438 135.910156 117.050781 114.574219 C 117.140625 107.554688 118.753906 98.394531 121.144531 89.253906 C 126.070312 70.566406 134.332031 51.96875 139.808594 51.96875 C 147.953125 51.96875 164.546875 74.203125 164.546875 74.203125 C 164.546875 74.203125 165.558594 73.859375 167.328125 73.421875 C 171.148438 72.429688 178.445312 70.867188 186.128906 71.050781 C 193.910156 71.234375 201.734375 72.730469 205.828125 73.628906 C 207.625 74.019531 208.707031 74.316406 208.707031 74.316406 C 208.707031 74.316406 224.332031 52.335938 230.910156 51.96875 C 236.34375 51.667969 245.5 69.621094 250.886719 89.417969 C 253.808594 100.164062 255.625 111.445312 255.144531 120.628906 Z M 255.144531 120.628906 " fill-opacity="1" fill-rule="nonzero"/><path fill="#7f6f67" d="M 250.886719 89.417969 C 243.683594 90.523438 234.894531 90.84375 225.847656 88.703125 C 212.570312 85.574219 207.714844 78.875 205.828125 73.652344 C 207.625 74.042969 208.707031 74.339844 208.707031 74.339844 C 208.707031 74.339844 224.332031 52.359375 230.910156 51.992188 C 236.34375 51.691406 245.5 69.644531 250.886719 89.441406 Z M 250.886719 89.417969 " fill-opacity="1" fill-rule="nonzero"/><path fill="#7f6f67" d="M 167.308594 73.421875 C 165.464844 78.691406 160.65625 85.527344 147.195312 88.703125 C 137.691406 90.960938 128.507812 90.5 121.121094 89.253906 C 126.046875 70.566406 134.308594 51.96875 139.785156 51.96875 C 147.929688 51.96875 164.523438 74.203125 164.523438 74.203125 C 164.523438 74.203125 165.535156 73.859375 167.308594 73.421875 Z M 167.308594 73.421875 " fill-opacity="1" fill-rule="nonzero"/><path fill="#000000" d="M 128.277344 152.460938 C 127.886719 152.253906 127.519531 151.90625 127.265625 151.5625 C 127.265625 151.5625 127.265625 151.539062 127.265625 151.539062 L 127.105469 151.285156 C 126.992188 151.101562 126.898438 150.941406 126.804688 150.757812 C 126.230469 149.789062 125.65625 148.683594 125.101562 147.71875 C 119.441406 137.152344 115.207031 125.4375 115.460938 113.308594 C 115.597656 108.820312 116.265625 104.378906 117.09375 99.980469 C 119.417969 88.335938 122.941406 77.011719 127.613281 66.125 C 129.890625 61.265625 133.113281 52.246094 138.609375 50.449219 C 141.765625 49.691406 145.125 52.0625 147.449219 53.832031 C 154.234375 59.265625 160.585938 66.445312 166.570312 72.753906 C 166.570312 72.753906 163.785156 71.878906 163.785156 71.878906 C 169.46875 70.820312 175.152344 70.015625 180.929688 69.714844 C 188.523438 69.324219 196.117188 70.199219 203.644531 71.164062 C 205.53125 71.417969 207.394531 71.671875 209.347656 71.945312 L 206.65625 72.914062 C 210.015625 69.183594 215.125 63.429688 218.601562 59.863281 C 220.695312 57.746094 222.765625 55.652344 225.042969 53.695312 C 226.21875 52.726562 227.414062 51.785156 229 51.070312 C 229.921875 50.703125 230.910156 50.472656 231.925781 50.679688 C 232.960938 50.886719 233.742188 51.394531 234.433594 51.875 C 236.917969 53.785156 238.644531 56.433594 240.253906 59.035156 C 247.617188 71.785156 252.175781 86.011719 254.9375 100.441406 C 256.617188 109.878906 257.261719 119.636719 255.511719 129.121094 C 254.109375 136.921875 251.367188 144.703125 246.492188 151.054688 C 246.238281 151.378906 245.890625 151.792969 245.617188 152.089844 C 245.15625 152.527344 244.558594 152.710938 243.980469 152.710938 C 205.4375 152.710938 166.847656 152.644531 128.324219 152.484375 Z M 130.351562 147.878906 C 168.25 147.742188 206.082031 147.648438 243.960938 147.648438 C 243.960938 147.648438 242.300781 148.269531 242.324219 148.246094 C 242.324219 148.246094 242.371094 148.222656 242.371094 148.222656 L 242.464844 148.15625 L 242.648438 148.015625 C 246.996094 144.335938 249.6875 139.019531 251.484375 133.679688 C 254.890625 123.066406 254.269531 111.742188 252.058594 100.902344 C 249.160156 86.90625 244.902344 72.914062 237.769531 60.460938 C 236.550781 58.484375 233.097656 52.914062 230.589844 53.371094 C 229.164062 53.742188 227.898438 54.59375 226.609375 55.558594 C 224.398438 57.261719 222.398438 59.355469 220.578125 61.566406 C 218.785156 63.683594 216.945312 66.148438 215.355469 68.425781 C 213.722656 70.796875 212.132812 73.234375 210.753906 75.722656 C 210.292969 76.527344 209.394531 76.941406 208.542969 76.78125 C 201.480469 74.410156 194.046875 72.753906 186.589844 72.5 C 181.136719 72.316406 175.660156 73.121094 170.414062 74.664062 C 169.101562 75.054688 167.8125 75.492188 166.546875 76 C 166.132812 76.160156 165.695312 76.34375 165.351562 76.527344 C 164.476562 76.964844 163.441406 76.734375 162.84375 76 L 162.566406 75.652344 C 158.101562 68.402344 149.585938 57.195312 141.695312 53.996094 C 141.695312 53.996094 141.257812 53.855469 141.257812 53.855469 C 140.84375 53.71875 140.476562 53.648438 140.0625 53.625 C 139.945312 53.625 139.808594 53.601562 139.761719 53.625 C 139.625 53.625 139.441406 53.695312 139.277344 53.785156 C 137.738281 54.636719 136.472656 56.34375 135.414062 57.816406 C 133.339844 60.714844 131.617188 63.84375 130.144531 67.136719 C 124.480469 80.441406 120.640625 94.6875 119.003906 109.050781 C 118.796875 111.191406 118.613281 113.332031 118.660156 115.472656 C 118.660156 118.992188 118.890625 122.675781 119.582031 126.105469 C 119.582031 126.105469 120.019531 128.199219 120.019531 128.199219 L 120.132812 128.730469 C 120.640625 130.617188 121.214844 132.527344 121.925781 134.34375 C 123.953125 139.457031 126.761719 144.378906 130.832031 148.109375 C 130.832031 148.109375 131.015625 148.269531 131.015625 148.269531 L 131.039062 148.269531 C 131.039062 148.269531 131.0625 148.316406 131.039062 148.269531 C 130.996094 148.203125 130.925781 148.132812 130.832031 148.0625 C 130.695312 147.925781 130.511719 147.832031 130.328125 147.765625 Z M 130.351562 147.878906 " fill-opacity="1" fill-rule="nonzero"/><path fill="#ffc5c5" d="M 130.648438 85.6875 C 133.546875 87.945312 155.386719 83.433594 157.894531 77.355469 C 159.089844 74.480469 145.214844 61.773438 140.542969 62.785156 C 135.871094 63.800781 128.738281 84.191406 130.648438 85.664062 Z M 130.648438 85.6875 " fill-opacity="1" fill-rule="nonzero"/><path fill="#ffc5c5" d="M 242.164062 85.6875 C 239.265625 87.945312 217.425781 83.433594 214.917969 77.355469 C 213.722656 74.480469 226.882812 61.773438 231.554688 62.785156 C 236.226562 63.800781 244.050781 84.191406 242.164062 85.664062 Z M 242.164062 85.6875 " fill-opacity="1" fill-rule="nonzero"/><g clip-path="url(#ba69f66b20)"><path fill="#000000" d="M 298.773438 153.980469 L 74.5 153.980469 C 72.890625 153.980469 71.578125 152.667969 71.578125 151.054688 C 71.578125 149.445312 72.890625 148.132812 74.5 148.132812 L 298.773438 148.132812 C 300.382812 148.132812 301.695312 149.445312 301.695312 151.054688 C 301.695312 152.667969 300.382812 153.980469 298.773438 153.980469 Z M 298.773438 153.980469 " fill-opacity="1" fill-rule="nonzero"/></g><path fill="#7f6f67" d="M 259.792969 135.773438 C 275.992188 138.050781 283.699219 143.507812 282.320312 151.722656 C 280.9375 159.941406 268.859375 156.257812 268.859375 156.257812 C 268.859375 156.257812 265.222656 157.363281 260.894531 156.972656 C 256.847656 156.601562 252.773438 153.957031 252.773438 153.957031 C 252.773438 153.957031 249.757812 155.128906 243.636719 153.289062 C 239.75 152.136719 237.378906 146.914062 240.667969 142.054688 C 243.246094 138.234375 249.296875 134.300781 259.792969 135.773438 Z M 259.792969 135.773438 " fill-opacity="1" fill-rule="nonzero"/><g clip-path="url(#078dcf1cdc)"><path fill="#000000" d="M 260.066406 133.769531 C 268.71875 135.082031 280.6875 137.152344 283.492188 146.980469 C 284 148.890625 283.90625 150.917969 283.46875 152.804688 C 281.652344 159.433594 273.691406 158.949219 268.28125 158.144531 C 268.28125 158.144531 269.433594 158.144531 269.433594 158.144531 C 266.535156 159.320312 263.402344 159.59375 260.296875 159.113281 C 257.121094 158.535156 254.476562 157.109375 252.105469 155.015625 C 252.082031 155.015625 253.234375 155.128906 253.234375 155.128906 C 253.027344 155.222656 252.910156 155.269531 252.773438 155.335938 C 250.011719 156.394531 246.929688 156.140625 244.121094 155.496094 C 240.4375 154.808594 237.90625 152.023438 237.445312 148.363281 C 236.894531 143.945312 239.726562 140.007812 242.878906 137.246094 C 247.664062 133.425781 254.246094 132.988281 260.066406 133.792969 Z M 259.515625 137.773438 C 253.785156 136.945312 247.550781 137.84375 243.0625 141.664062 C 241.40625 143.160156 240.414062 145.667969 240.96875 147.765625 C 241.429688 149.628906 242.738281 151.007812 244.488281 151.492188 C 246.949219 152.253906 249.527344 152.851562 252.105469 152.804688 C 252.21875 152.804688 253.277344 152.921875 253.441406 152.921875 C 255.789062 153.703125 258.386719 154.601562 260.804688 154.738281 C 262.96875 154.851562 265.199219 154.691406 267.386719 154.460938 C 268.03125 154.371094 268.789062 154.371094 269.433594 154.371094 C 273.136719 156.074219 280.179688 156.695312 280.960938 151.515625 C 281.699219 146.980469 279.28125 144.496094 275.53125 142.515625 C 270.652344 139.824219 265.085938 138.648438 259.515625 137.773438 Z M 259.515625 137.773438 " fill-opacity="1" fill-rule="nonzero"/></g><path fill="#7f6f67" d="M 117.855469 135.773438 C 101.652344 138.050781 93.945312 143.507812 95.324219 151.722656 C 96.707031 159.941406 108.789062 156.257812 108.789062 156.257812 C 108.789062 156.257812 112.421875 157.363281 116.75 156.972656 C 120.800781 156.601562 124.875 153.957031 124.875 153.957031 C 124.875 153.957031 127.886719 155.128906 134.007812 153.289062 C 137.898438 152.136719 140.269531 146.914062 136.976562 142.054688 C 134.398438 138.234375 128.347656 134.300781 117.855469 135.773438 Z M 117.855469 135.773438 " fill-opacity="1" fill-rule="nonzero"/><path fill="#7f6f67" d="M 158.46875 107.023438 C 142.039062 107.554688 132.03125 136.210938 153.039062 142.171875 C 168.367188 146.542969 223.640625 147.097656 232.292969 138.742188 C 241.910156 129.464844 230.082031 108.566406 216.113281 107.738281 C 195.863281 106.542969 195.839844 94.527344 186.636719 94.410156 C 176.257812 94.296875 177.9375 106.402344 158.46875 107.023438 Z M 158.46875 107.023438 " fill-opacity="1" fill-rule="nonzero"/><g clip-path="url(#3f4813af5f)"><path fill="#000000" d="M 117.578125 133.769531 C 123.402344 132.964844 130.003906 133.425781 134.769531 137.222656 C 137.921875 139.984375 140.75 143.921875 140.199219 148.339844 C 139.738281 152.023438 137.207031 154.808594 133.527344 155.476562 C 130.71875 156.121094 127.632812 156.371094 124.875 155.3125 C 124.734375 155.246094 124.621094 155.199219 124.414062 155.105469 C 124.414062 155.105469 125.5625 154.992188 125.539062 154.992188 C 123.171875 157.085938 120.523438 158.511719 117.347656 159.089844 C 114.21875 159.570312 111.113281 159.296875 108.210938 158.121094 C 108.210938 158.121094 109.363281 158.121094 109.363281 158.121094 C 103.957031 158.925781 95.992188 159.410156 94.175781 152.78125 C 93.714844 150.894531 93.625 148.867188 94.152344 146.957031 C 96.960938 137.128906 108.902344 135.058594 117.578125 133.746094 Z M 118.128906 137.773438 C 112.5625 138.648438 106.992188 139.824219 102.113281 142.515625 C 98.363281 144.496094 95.949219 146.980469 96.683594 151.515625 C 97.464844 156.71875 104.53125 156.074219 108.210938 154.371094 C 108.855469 154.371094 109.59375 154.371094 110.261719 154.460938 C 112.421875 154.691406 114.65625 154.851562 116.84375 154.738281 C 119.257812 154.578125 121.859375 153.703125 124.207031 152.921875 C 124.367188 152.921875 125.425781 152.78125 125.539062 152.804688 C 128.117188 152.851562 130.695312 152.253906 133.15625 151.492188 C 134.90625 151.007812 136.21875 149.628906 136.679688 147.765625 C 137.253906 145.667969 136.242188 143.160156 134.585938 141.664062 C 130.097656 137.84375 123.859375 136.96875 118.128906 137.773438 Z M 118.128906 137.773438 " fill-opacity="1" fill-rule="nonzero"/></g><path fill="#000000" d="M 192.6875 126.058594 C 191.445312 126.589844 189.8125 127.09375 188.570312 126.289062 C 188.132812 126.011719 187.808594 125.621094 187.558594 125.207031 C 189.121094 124.769531 190.871094 123.433594 190.871094 122.46875 C 190.871094 121.503906 188.960938 120.535156 186.613281 120.535156 C 184.265625 120.535156 182.355469 121.296875 182.355469 122.46875 C 182.355469 123.644531 184.058594 124.792969 185.671875 125.230469 C 185.417969 125.667969 185.09375 126.035156 184.679688 126.3125 C 183.4375 127.117188 181.828125 126.613281 180.5625 126.082031 C 179.710938 125.714844 178.949219 126.980469 179.824219 127.347656 C 181.527344 128.0625 183.507812 128.613281 185.234375 127.671875 C 185.808594 127.347656 186.246094 126.910156 186.613281 126.40625 C 186.980469 126.910156 187.441406 127.347656 187.996094 127.671875 C 189.71875 128.636719 191.722656 128.0625 193.402344 127.347656 C 194.253906 126.980469 193.515625 125.714844 192.664062 126.082031 Z M 192.6875 126.058594 " fill-opacity="1" fill-rule="nonzero"/><path fill="#000000" d="M 169.011719 120.488281 C 169.011719 121.121094 168.949219 121.75 168.824219 122.371094 C 168.699219 122.992188 168.519531 123.59375 168.277344 124.179688 C 168.035156 124.765625 167.738281 125.320312 167.386719 125.847656 C 167.03125 126.375 166.632812 126.859375 166.1875 127.308594 C 165.738281 127.757812 165.25 128.15625 164.726562 128.507812 C 164.199219 128.859375 163.644531 129.15625 163.058594 129.398438 C 162.472656 129.640625 161.871094 129.824219 161.25 129.949219 C 160.628906 130.070312 160 130.132812 159.367188 130.132812 C 158.734375 130.132812 158.109375 130.070312 157.488281 129.949219 C 156.867188 129.824219 156.261719 129.640625 155.679688 129.398438 C 155.09375 129.15625 154.539062 128.859375 154.011719 128.507812 C 153.484375 128.15625 152.996094 127.757812 152.550781 127.308594 C 152.101562 126.859375 151.703125 126.375 151.351562 125.847656 C 151 125.320312 150.703125 124.765625 150.460938 124.179688 C 150.21875 123.59375 150.035156 122.992188 149.910156 122.371094 C 149.789062 121.75 149.726562 121.121094 149.726562 120.488281 C 149.726562 119.855469 149.789062 119.230469 149.910156 118.609375 C 150.035156 117.988281 150.21875 117.382812 150.460938 116.796875 C 150.703125 116.214844 151 115.65625 151.351562 115.132812 C 151.703125 114.605469 152.101562 114.117188 152.550781 113.671875 C 152.996094 113.222656 153.484375 112.824219 154.011719 112.46875 C 154.539062 112.117188 155.09375 111.820312 155.679688 111.578125 C 156.261719 111.335938 156.867188 111.152344 157.488281 111.03125 C 158.109375 110.90625 158.734375 110.84375 159.367188 110.84375 C 160 110.84375 160.628906 110.90625 161.25 111.03125 C 161.871094 111.152344 162.472656 111.335938 163.058594 111.578125 C 163.644531 111.820312 164.199219 112.117188 164.726562 112.472656 C 165.25 112.824219 165.738281 113.222656 166.1875 113.671875 C 166.632812 114.117188 167.03125 114.605469 167.386719 115.132812 C 167.738281 115.65625 168.035156 116.214844 168.277344 116.796875 C 168.519531 117.382812 168.699219 117.988281 168.824219 118.609375 C 168.949219 119.230469 169.011719 119.855469 169.011719 120.488281 Z M 169.011719 120.488281 " fill-opacity="1" fill-rule="nonzero"/><path fill="#000000" d="M 224.46875 120.488281 C 224.46875 121.121094 224.40625 121.75 224.28125 122.371094 C 224.160156 122.992188 223.976562 123.59375 223.734375 124.179688 C 223.492188 124.765625 223.195312 125.320312 222.84375 125.847656 C 222.492188 126.375 222.09375 126.859375 221.644531 127.308594 C 221.195312 127.757812 220.710938 128.15625 220.183594 128.507812 C 219.65625 128.859375 219.101562 129.15625 218.515625 129.398438 C 217.929688 129.640625 217.328125 129.824219 216.707031 129.949219 C 216.085938 130.070312 215.460938 130.132812 214.828125 130.132812 C 214.191406 130.132812 213.566406 130.070312 212.945312 129.949219 C 212.324219 129.824219 211.722656 129.640625 211.136719 129.398438 C 210.550781 129.15625 209.996094 128.859375 209.46875 128.507812 C 208.941406 128.15625 208.457031 127.757812 208.007812 127.308594 C 207.5625 126.859375 207.160156 126.375 206.808594 125.847656 C 206.457031 125.320312 206.160156 124.765625 205.917969 124.179688 C 205.675781 123.59375 205.492188 122.992188 205.371094 122.371094 C 205.246094 121.75 205.183594 121.121094 205.183594 120.488281 C 205.183594 119.855469 205.246094 119.230469 205.371094 118.609375 C 205.492188 117.988281 205.675781 117.382812 205.917969 116.796875 C 206.160156 116.214844 206.457031 115.65625 206.808594 115.132812 C 207.160156 114.605469 207.5625 114.117188 208.007812 113.671875 C 208.457031 113.222656 208.941406 112.824219 209.46875 112.46875 C 209.996094 112.117188 210.550781 111.820312 211.136719 111.578125 C 211.722656 111.335938 212.324219 111.152344 212.945312 111.03125 C 213.566406 110.90625 214.191406 110.84375 214.828125 110.84375 C 215.460938 110.84375 216.085938 110.90625 216.707031 111.03125 C 217.328125 111.152344 217.929688 111.335938 218.515625 111.578125 C 219.101562 111.820312 219.65625 112.117188 220.183594 112.472656 C 220.710938 112.824219 221.195312 113.222656 221.644531 113.671875 C 222.09375 114.117188 222.492188 114.605469 222.84375 115.132812 C 223.195312 115.65625 223.492188 116.214844 223.734375 116.796875 C 223.976562 117.382812 224.160156 117.988281 224.28125 118.609375 C 224.40625 119.230469 224.46875 119.855469 224.46875 120.488281 Z M 224.46875 120.488281 " fill-opacity="1" fill-rule="nonzero"/><path fill="#ffabab" d="M 145.398438 131.398438 C 145.007812 132.160156 144.59375 132.894531 144.203125 133.65625 C 143.8125 134.414062 144.089844 134.574219 144.503906 134.78125 C 144.917969 134.988281 145.421875 134.898438 145.628906 134.484375 C 146.019531 133.722656 146.433594 132.988281 146.828125 132.226562 C 147.21875 131.46875 146.941406 131.308594 146.527344 131.101562 C 146.113281 130.894531 145.605469 130.984375 145.398438 131.398438 Z M 145.398438 131.398438 " fill-opacity="1" fill-rule="nonzero"/><path fill="#ffabab" d="M 149.472656 131.675781 L 148.597656 133.816406 C 148.53125 134 148.597656 134.300781 148.691406 134.460938 C 148.78125 134.621094 148.988281 134.804688 149.195312 134.851562 C 149.402344 134.898438 149.65625 134.898438 149.839844 134.757812 L 150.003906 134.621094 C 150.09375 134.53125 150.1875 134.390625 150.210938 134.253906 L 151.082031 132.113281 C 151.152344 131.929688 151.082031 131.628906 150.992188 131.46875 C 150.898438 131.308594 150.691406 131.125 150.484375 131.078125 C 150.277344 131.03125 150.023438 131.03125 149.839844 131.167969 L 149.679688 131.308594 C 149.585938 131.398438 149.496094 131.539062 149.472656 131.675781 Z M 149.472656 131.675781 " fill-opacity="1" fill-rule="nonzero"/><path fill="#ffabab" d="M 153.777344 132.089844 C 153.453125 132.621094 153.15625 133.125 152.832031 133.65625 C 152.511719 134.183594 152.695312 134.09375 152.742188 134.300781 C 152.785156 134.507812 152.949219 134.691406 153.132812 134.804688 C 153.316406 134.921875 153.546875 134.96875 153.777344 134.898438 C 154.007812 134.828125 154.167969 134.714844 154.28125 134.507812 C 154.605469 133.976562 154.902344 133.472656 155.226562 132.941406 C 155.546875 132.410156 155.363281 132.503906 155.316406 132.296875 C 155.273438 132.089844 155.109375 131.90625 154.925781 131.789062 C 154.742188 131.675781 154.511719 131.628906 154.28125 131.699219 C 154.050781 131.769531 153.890625 131.882812 153.777344 132.089844 Z M 153.777344 132.089844 " fill-opacity="1" fill-rule="nonzero"/><path fill="#ffabab" d="M 221.960938 130.800781 C 221.730469 131.191406 221.5 131.605469 221.269531 131.996094 C 221.15625 132.183594 221.132812 132.433594 221.175781 132.640625 C 221.222656 132.847656 221.382812 133.035156 221.570312 133.148438 C 221.753906 133.265625 221.984375 133.308594 222.214844 133.242188 C 222.441406 133.171875 222.605469 133.054688 222.71875 132.847656 C 222.949219 132.457031 223.179688 132.042969 223.410156 131.652344 C 223.523438 131.46875 223.546875 131.214844 223.5 131.007812 C 223.457031 130.800781 223.292969 130.617188 223.109375 130.5 C 222.925781 130.386719 222.695312 130.339844 222.464844 130.410156 C 222.234375 130.480469 222.074219 130.59375 221.960938 130.800781 Z M 221.960938 130.800781 " fill-opacity="1" fill-rule="nonzero"/><path fill="#ffabab" d="M 227 130.410156 C 226.65625 131.078125 226.285156 131.746094 225.941406 132.410156 C 225.847656 132.597656 225.804688 132.828125 225.847656 133.054688 C 225.894531 133.285156 226.054688 133.449219 226.238281 133.5625 C 226.632812 133.769531 227.160156 133.679688 227.367188 133.265625 C 227.714844 132.597656 228.082031 131.929688 228.425781 131.261719 C 228.519531 131.078125 228.5625 130.847656 228.519531 130.617188 C 228.472656 130.386719 228.3125 130.226562 228.128906 130.109375 C 227.734375 129.902344 227.207031 129.996094 227 130.410156 Z M 227 130.410156 " fill-opacity="1" fill-rule="nonzero"/><path fill="#ffabab" d="M 232.363281 130.410156 C 231.832031 131.125 231.304688 131.835938 230.796875 132.550781 C 230.289062 133.265625 230.660156 133.011719 230.703125 133.195312 C 230.75 133.378906 230.910156 133.585938 231.09375 133.699219 C 231.28125 133.816406 231.511719 133.863281 231.738281 133.792969 L 231.945312 133.699219 C 232.0625 133.632812 232.175781 133.515625 232.246094 133.402344 C 232.777344 132.6875 233.304688 131.976562 233.8125 131.261719 C 233.925781 131.101562 233.949219 130.800781 233.902344 130.617188 C 233.855469 130.433594 233.695312 130.226562 233.511719 130.109375 C 233.328125 129.996094 233.097656 129.949219 232.867188 130.019531 L 232.660156 130.109375 C 232.546875 130.179688 232.429688 130.292969 232.363281 130.410156 Z M 232.363281 130.410156 " fill-opacity="1" fill-rule="nonzero"/><path fill="#000000" d="M 243.132812 122.582031 C 250.726562 121.800781 258.296875 121.019531 265.890625 120.234375 C 267.453125 120.074219 267.476562 117.589844 265.890625 117.75 C 258.296875 118.53125 250.726562 119.316406 243.132812 120.097656 C 241.566406 120.257812 241.542969 122.746094 243.132812 122.582031 Z M 243.132812 122.582031 " fill-opacity="1" fill-rule="nonzero"/><path fill="#000000" d="M 245.386719 130.6875 C 252.152344 130.480469 258.894531 130.847656 265.566406 131.859375 C 267.132812 132.089844 267.800781 129.695312 266.234375 129.464844 C 259.332031 128.429688 252.382812 127.96875 245.386719 128.199219 C 243.796875 128.246094 243.773438 130.730469 245.386719 130.6875 Z M 245.386719 130.6875 " fill-opacity="1" fill-rule="nonzero"/><path fill="#000000" d="M 129.382812 122.582031 C 121.789062 121.800781 114.21875 121.019531 106.625 120.234375 C 105.058594 120.074219 105.035156 117.589844 106.625 117.75 C 114.21875 118.53125 121.789062 119.316406 129.382812 120.097656 C 130.949219 120.257812 130.972656 122.746094 129.382812 122.582031 Z M 129.382812 122.582031 " fill-opacity="1" fill-rule="nonzero"/><path fill="#000000" d="M 127.128906 130.6875 C 120.363281 130.480469 113.621094 130.847656 106.945312 131.859375 C 105.382812 132.089844 104.714844 129.695312 106.28125 129.464844 C 113.183594 128.429688 120.132812 127.96875 127.128906 128.199219 C 128.714844 128.246094 128.738281 130.730469 127.128906 130.6875 Z M 127.128906 130.6875 " fill-opacity="1" fill-rule="nonzero"/></svg>